SplineFontDB: 3.0
FontName: MenuIcons
FullName: MenuIcons
FamilyName: MenuIcons
Weight: Regular
Copyright: Copyright (c) 2016, Marco
UComments: "2016-12-7: Created with FontForge (http://fontforge.org)"
Version: 001.000
ItalicAngle: 0
UnderlinePosition: -102.4
UnderlineWidth: 51.2
Ascent: 819
Descent: 205
InvalidEm: 0
LayerCount: 2
Layer: 0 0 "Back" 1
Layer: 1 0 "Fore" 0
XUID: [1021 363 329103379 1092]
StyleMap: 0x0000
FSType: 0
OS2Version: 0
OS2_WeightWidthSlopeOnly: 0
OS2_UseTypoMetrics: 1
CreationTime: 1481129051
ModificationTime: 1489132979
OS2TypoAscent: 0
OS2TypoAOffset: 1
OS2TypoDescent: 0
OS2TypoDOffset: 1
OS2TypoLinegap: 92
OS2WinAscent: 0
OS2WinAOffset: 1
OS2WinDescent: 0
OS2WinDOffset: 1
HheadAscent: 0
HheadAOffset: 1
HheadDescent: 0
HheadDOffset: 1
OS2Vendor: 'PfEd'
MarkAttachClasses: 1
DEI: 91125
Encoding: UnicodeFull
UnicodeInterp: none
NameList: AGL For New Fonts
DisplaySize: -48
AntiAlias: 1
FitToEm: 0
WinInfo: 0 38 14
BeginPrivate: 0
EndPrivate
BeginChars: 1114112 29

StartChar: A
Encoding: 65 65 0
Width: 1024
VWidth: 0
Flags: HW
LayerCount: 2
Fore
SplineSet
782 356 m 0
 788 344 789 333 787 320 c 0
 785 302 777 283 762 262 c 0
 745 237 728 217 714 203 c 0
 701 189 685 173 663 155 c 0
 625 121 595 96 575 79 c 2
 529 41 l 2
 513 26 499 14 486 5 c 0
 472 -7 453 -19 430 -32 c 0
 398 -50 371 -55 351 -47 c 0
 333 -40 321 -27 314 -7 c 0
 309 8 305 27 304 50 c 0
 298 125 296 198 301 269 c 2
 306 333 l 2
 307 359 307 399 306 454 c 2
 302 578 l 2
 302 618 311 643 328 654 c 0
 343 664 364 664 390 654 c 0
 405 648 423 638 443 626 c 0
 555 563 657 486 751 395 c 0
 766 380 777 366 782 356 c 0
EndSplineSet
Validated: 33
EndChar

StartChar: B
Encoding: 66 66 1
Width: 1024
VWidth: 0
Flags: HW
LayerCount: 2
Fore
SplineSet
704 572 m 1
 788 605 875 607 965 579 c 0
 972 578 979 576 986 571 c 0
 993 527 977 501 939 494 c 0
 899 489 858 486 816 487 c 1
 765 417 734 336 724 243 c 0
 719 205 699 177 663 157 c 1
 690 91 668 38 598 -1 c 0
 577 -13 555 -11 532 2 c 0
 476 32 455 81 468 150 c 1
 416 150 l 1
 430 73 400 23 326 3 c 0
 301 -5 278 2 258 26 c 0
 232 54 216 90 212 132 c 1
 99 234 48 356 58 499 c 0
 60 518 70 531 89 537 c 0
 138 546 186 550 234 550 c 0
 385 551 536 547 686 538 c 1
 704 572 l 1
641 457 m 1
 219 461 l 1
 185 457 l 1
 177 367 207 288 275 221 c 1
 581 218 l 1
 614 295 634 375 641 457 c 1
EndSplineSet
Validated: 33
EndChar

StartChar: C
Encoding: 67 67 2
Width: 1024
VWidth: 0
Flags: HW
LayerCount: 2
Fore
SplineSet
752 679 m 0
 763 674 769 666 770 656 c 0
 771 649 768 642 765 635 c 0
 764 633 760 627 753 616 c 0
 748 608 744 600 740 590 c 0
 740 588 739 586 739 585 c 0
 739 582 740 579 740 577 c 1
 752 578 763 577 774 574 c 0
 788 570 798 565 805 559 c 0
 817 548 825 530 829 506 c 0
 832 486 832 465 830 445 c 0
 829 433 826 423 823 417 c 0
 822 413 818 406 810 395 c 0
 804 387 797 382 792 379 c 0
 786 374 777 370 766 369 c 0
 754 367 745 366 736 366 c 0
 727 365 720 366 714 369 c 0
 709 370 703 374 697 380 c 1
 695 369 693 360 689 350 c 0
 679 327 662 308 639 294 c 0
 627 286 614 280 599 275 c 0
 597 272 595 271 592 270 c 0
 591 269 588 268 585 267 c 0
 582 266 579 265 577 264 c 0
 574 261 570 255 566 245 c 2
 552 203 l 2
 548 192 546 185 546 183 c 0
 544 172 543 156 543 135 c 0
 545 134 546 134 547 134 c 0
 552 132 559 130 569 129 c 0
 581 128 589 127 592 126 c 0
 607 122 619 112 626 97 c 0
 634 82 635 65 631 48 c 1
 657 43 677 33 690 19 c 0
 700 7 706 -7 707 -23 c 0
 708 -37 706 -47 700 -56 c 0
 700 -57 699 -59 698 -60 c 0
 695 -68 689 -74 679 -78 c 0
 675 -80 666 -82 652 -84 c 0
 631 -87 608 -89 583 -89 c 0
 514 -102 449 -99 389 -81 c 2
 362 -79 l 2
 351 -78 342 -76 336 -73 c 0
 334 -72 332 -71 330 -69 c 0
 323 -67 317 -64 313 -60 c 0
 305 -51 302 -39 304 -23 c 0
 306 -7 311 7 321 19 c 0
 334 33 353 43 380 48 c 1
 375 65 376 82 384 97 c 0
 392 112 403 122 418 126 c 0
 422 127 429 128 440 129 c 0
 450 130 458 132 462 134 c 0
 464 134 465 134 467 135 c 0
 467 156 466 172 464 183 c 0
 463 185 461 192 458 203 c 2
 443 245 l 2
 440 255 437 261 434 264 c 0
 432 265 430 266 426 267 c 0
 422 268 419 269 418 270 c 0
 415 271 414 272 412 275 c 0
 396 280 383 286 371 294 c 0
 348 308 332 327 323 350 c 0
 318 360 315 369 313 380 c 1
 307 374 301 370 297 369 c 0
 291 366 284 365 275 366 c 0
 266 366 256 367 244 369 c 0
 233 370 224 374 218 379 c 0
 213 382 207 387 201 395 c 0
 192 406 187 413 186 417 c 0
 183 423 182 433 180 445 c 0
 178 465 178 486 182 506 c 0
 185 530 193 548 205 559 c 0
 213 565 223 570 236 574 c 0
 248 577 259 578 270 577 c 1
 270 579 271 582 272 585 c 0
 271 586 270 588 270 590 c 0
 267 600 263 608 258 616 c 0
 250 627 246 633 245 635 c 0
 241 642 240 649 241 656 c 0
 242 666 248 674 259 679 c 0
 265 681 274 682 286 682 c 2
 506 681 l 2
 517 681 517 681 529 681 c 2
 724 682 l 2
 736 682 746 681 752 679 c 0
773 515 m 0
 770 517 766 518 762 519 c 0
 752 521 743 521 737 518 c 2
 727 510 l 2
 725 505 723 501 720 498 c 0
 720 493 720 487 720 482 c 0
 720 480 720 478 719 476 c 0
 720 467 721 458 721 449 c 0
 721 441 721 441 721 435 c 0
 725 428 728 425 729 424 c 0
 731 423 736 422 741 422 c 0
 756 423 766 426 772 432 c 0
 777 437 781 444 783 454 c 0
 784 462 784 470 783 480 c 0
 782 489 781 497 780 503 c 0
 778 509 776 513 773 515 c 0
249 519 m 0
 244 518 240 517 238 515 c 0
 236 513 234 509 232 503 c 0
 230 497 229 489 228 480 c 0
 227 470 227 462 228 454 c 0
 230 444 234 437 239 432 c 0
 245 426 255 423 269 422 c 0
 274 422 278 423 280 424 c 0
 282 425 286 428 291 435 c 0
 291 439 290 444 290 449 c 0
 290 458 290 467 291 476 c 0
 291 480 291 479 291 482 c 0
 291 487 291 493 291 498 c 0
 288 501 285 505 283 510 c 2
 272 518 l 2
 267 521 259 521 249 519 c 0
EndSplineSet
Validated: 33
EndChar

StartChar: D
Encoding: 68 68 3
Width: 1024
VWidth: 0
Flags: HW
LayerCount: 2
Fore
SplineSet
593 667 m 0
 599 665 604 662 609 659 c 0
 625 653 636 648 642 644 c 0
 654 634 661 624 662 612 c 0
 662 604 659 598 656 593 c 0
 656 589 656 585 655 581 c 0
 658 561 661 540 662 520 c 2
 663 489 l 2
 663 466 660 440 657 412 c 2
 656 396 l 1
 655 396 l 1
 653 372 l 2
 654 372 654 372 655 372 c 0
 660 373 666 373 675 373 c 2
 712 374 l 2
 729 374 743 372 751 368 c 0
 764 360 771 348 773 332 c 0
 773 326 773 320 772 315 c 0
 772 312 772 308 771 305 c 0
 769 297 763 284 753 268 c 0
 741 251 719 209 685 140 c 0
 658 86 632 46 606 20 c 0
 592 8 577 -4 560 -17 c 0
 554 -24 547 -31 537 -36 c 0
 525 -43 512 -46 499 -46 c 0
 486 -46 472 -43 460 -36 c 0
 450 -31 443 -24 437 -17 c 0
 420 -4 405 8 391 20 c 0
 365 46 339 86 312 140 c 0
 278 209 255 251 244 268 c 0
 234 284 228 297 226 305 c 0
 225 308 225 312 225 315 c 0
 224 320 224 326 224 332 c 0
 226 348 233 360 246 368 c 0
 254 372 267 374 285 374 c 2
 322 373 l 2
 331 373 337 373 342 372 c 0
 343 372 343 372 344 372 c 2
 340 410 l 2
 337 438 335 464 335 487 c 2
 336 518 l 2
 337 538 339 559 342 579 c 0
 341 583 341 587 341 591 c 0
 338 596 336 603 336 611 c 0
 337 623 343 633 355 643 c 0
 357 644 361 646 365 648 c 0
 367 650 370 653 374 655 c 0
 410 674 449 685 491 687 c 0
 527 689 559 683 585 670 c 0
 588 669 590 668 593 667 c 0
EndSplineSet
Validated: 33
EndChar

StartChar: E
Encoding: 69 69 4
Width: 1024
VWidth: 0
Flags: HW
LayerCount: 2
Fore
SplineSet
586 459 m 0
 588 440 594 421 603 403 c 0
 634 340 665 278 698 216 c 0
 712 189 726 162 739 136 c 0
 752 112 764 90 777 70 c 0
 785 58 788 44 786 29 c 0
 783 3 769 -14 746 -25 c 0
 736 -30 726 -33 714 -34 c 0
 661 -43 607 -46 554 -42 c 0
 490 -38 426 -38 362 -41 c 0
 328 -42 296 -38 265 -29 c 0
 237 -20 221 -2 216 27 c 0
 212 51 215 74 228 98 c 0
 255 149 280 201 301 254 c 0
 324 313 350 370 380 426 c 0
 390 445 393 466 390 489 c 0
 388 508 386 527 386 546 c 0
 386 561 386 577 386 592 c 0
 369 595 360 606 359 623 c 0
 359 629 359 634 361 639 c 0
 363 647 368 653 375 657 c 0
 388 662 401 664 415 663 c 0
 476 661 536 660 595 660 c 0
 600 660 604 658 608 654 c 0
 625 636 624 619 607 602 c 0
 606 601 604 599 602 598 c 2
 581 592 l 1
 580 547 582 503 586 459 c 0
507 589 m 1
 459 589 l 1
 458 539 l 2
 456 500 455 461 457 421 c 0
 457 412 455 403 451 395 c 0
 424 349 400 302 377 255 c 1
 591 255 l 2
 588 269 582 283 575 295 c 0
 549 339 527 387 510 436 c 0
 508 443 507 450 508 457 c 0
 512 501 512 545 507 589 c 1
EndSplineSet
Validated: 33
EndChar

StartChar: F
Encoding: 70 70 5
Width: 1024
VWidth: 0
Flags: HW
LayerCount: 2
Fore
SplineSet
573 71 m 0
 576 67 580 61 584 51 c 0
 588 42 591 33 593 24 c 0
 596 5 594 -13 587 -31 c 0
 578 -49 566 -62 552 -69 c 0
 541 -74 526 -76 503 -76 c 0
 484 -76 469 -74 460 -72 c 2
 435 -63 l 2
 413 -55 398 -45 391 -32 c 0
 386 -22 381 -8 380 11 c 0
 380 25 382 37 385 47 c 0
 389 62 398 76 413 87 c 0
 421 93 436 99 456 104 c 0
 484 108 508 106 531 98 c 0
 548 94 563 85 573 71 c 0
714 593 m 0
 721 576 726 549 728 510 c 0
 732 472 733 443 731 424 c 0
 727 385 714 350 689 319 c 0
 668 292 641 270 607 253 c 0
 589 244 579 234 577 223 c 0
 576 216 577 205 580 190 c 0
 581 179 577 169 569 159 c 0
 562 150 554 144 544 141 c 0
 535 139 515 138 485 140 c 0
 459 142 445 144 444 144 c 0
 429 147 417 153 408 161 c 0
 388 181 380 209 386 244 c 0
 391 271 404 297 424 322 c 0
 436 337 454 356 480 382 c 0
 495 397 504 413 505 428 c 0
 506 444 502 456 491 465 c 0
 482 476 471 478 458 473 c 0
 448 469 440 459 432 444 c 0
 424 426 419 414 414 406 c 0
 402 382 384 365 360 355 c 0
 337 344 313 342 289 348 c 0
 266 353 251 364 243 382 c 0
 238 393 235 410 235 431 c 0
 232 484 235 525 244 555 c 0
 259 606 293 648 345 682 c 0
 371 698 393 709 411 713 c 0
 430 718 452 718 479 716 c 0
 514 714 552 707 590 696 c 0
 621 687 645 676 662 662 c 0
 688 643 705 620 714 593 c 0
EndSplineSet
Validated: 33
EndChar

StartChar: G
Encoding: 71 71 6
Width: 1024
VWidth: 0
Flags: HW
LayerCount: 2
Fore
SplineSet
666 620 m 0
 682 622 699 616 715 602 c 2
 753 563 l 2
 762 554 777 541 797 523 c 0
 813 504 820 487 817 470 c 0
 816 453 803 433 777 410 c 0
 727 365 690 330 664 305 c 1
 665 304 l 2
 692 272 720 245 751 222 c 0
 781 199 800 184 806 176 c 0
 825 154 831 132 823 110 c 0
 820 100 813 89 800 76 c 0
 766 36 736 10 711 -4 c 0
 700 -10 692 -14 686 -14 c 0
 675 -14 662 -8 648 4 c 0
 624 22 599 43 574 67 c 2
 552 91 l 1
 534 118 l 2
 528 128 521 138 517 147 c 1
 515 146 513 144 512 142 c 2
 488 119 l 2
 482 113 472 99 458 81 c 0
 446 65 435 54 426 45 c 0
 422 41 410 31 391 17 c 0
 367 2 349 -6 337 -8 c 0
 318 -10 299 -5 278 9 c 0
 263 18 247 32 231 52 c 0
 205 82 192 107 193 127 c 0
 193 144 199 162 212 178 c 0
 219 188 233 201 252 216 c 2
 318 269 l 2
 332 281 342 290 348 298 c 2
 330 315 l 2
 288 351 258 379 239 399 c 0
 236 402 236 402 234 404 c 0
 234 405 234 406 233 406 c 0
 219 413 209 423 201 437 c 0
 193 451 190 465 191 480 c 0
 194 507 212 535 246 563 c 2
 287 593 l 2
 314 611 337 618 355 613 c 0
 365 609 376 601 388 589 c 0
 414 562 452 514 502 446 c 2
 507 440 l 2
 521 457 539 481 559 511 c 0
 584 551 604 579 621 595 c 0
 638 611 653 619 666 620 c 0
EndSplineSet
Validated: 33
EndChar

StartChar: H
Encoding: 72 72 7
Width: 1024
VWidth: 0
Flags: HW
LayerCount: 2
Fore
SplineSet
777 562 m 0
 850 489 887 400 887 297 c 0
 887 194 850 106 777 33 c 0
 704 -40 617 -76 514 -76 c 0
 411 -76 322 -40 249 33 c 0
 176 106 140 194 140 297 c 0
 140 400 176 489 249 562 c 0
 322 635 411 671 514 671 c 0
 617 671 704 635 777 562 c 0
514 600 m 0
 430 600 357 570 297 510 c 0
 237 450 208 378 208 294 c 0
 208 209 237 138 297 78 c 0
 313 62 330 48 347 37 c 1
 344 40 341 43 338 46 c 0
 280 104 251 175 251 257 c 0
 251 297 257 333 271 367 c 1
 278 343 291 322 309 304 c 0
 339 274 375 259 417 259 c 0
 459 259 494 274 524 304 c 0
 554 334 569 369 569 411 c 0
 569 453 554 489 524 519 c 0
 511 532 497 542 482 549 c 1
 504 554 526 557 550 557 c 0
 633 557 703 527 761 468 c 0
 766 463 772 457 777 452 c 1
 764 473 748 492 730 510 c 0
 670 570 598 600 514 600 c 0
617 97 m 0
 617 114 612 128 600 140 c 0
 588 152 574 158 557 158 c 0
 540 158 526 152 514 140 c 0
 502 128 497 114 497 97 c 0
 497 80 502 67 514 55 c 0
 526 43 540 37 557 37 c 0
 574 37 588 43 600 55 c 0
 612 67 617 80 617 97 c 0
658 129 m 0
 658 121 661 114 666 109 c 0
 671 104 678 101 686 101 c 0
 694 101 701 104 706 109 c 0
 711 114 714 121 714 129 c 0
 714 137 711 143 706 148 c 0
 701 153 694 156 686 156 c 0
 678 156 671 153 666 148 c 0
 661 143 658 137 658 129 c 0
EndSplineSet
Validated: 1
EndChar

StartChar: I
Encoding: 73 73 8
Width: 1024
VWidth: 0
Flags: HW
LayerCount: 2
Fore
SplineSet
766 636 m 0
 779 632 800 626 827 619 c 0
 851 611 865 598 873 581 c 0
 879 565 878 545 870 521 c 0
 861 498 847 473 829 445 c 0
 791 387 739 318 676 237 c 0
 604 148 552 80 517 35 c 0
 497 10 479 -6 466 -12 c 0
 446 -21 425 -20 402 -10 c 0
 386 -3 368 10 348 27 c 0
 331 41 313 58 293 80 c 0
 277 97 255 125 227 163 c 2
 134 290 l 2
 133 294 133 299 134 304 c 0
 136 309 139 314 143 319 c 0
 146 322 156 328 172 338 c 0
 174 339 187 349 211 366 c 0
 226 377 249 389 279 404 c 0
 294 411 305 414 313 411 c 0
 315 410 321 406 331 399 c 0
 332 398 333 397 334 396 c 0
 346 375 355 359 363 347 c 0
 381 319 393 301 397 290 c 0
 398 285 400 280 402 276 c 0
 407 267 412 260 415 254 c 0
 427 256 435 259 441 263 c 0
 447 268 453 276 457 285 c 0
 460 290 464 298 467 310 c 0
 470 317 481 339 503 374 c 0
 535 423 566 487 596 569 c 0
 605 596 616 616 627 629 c 0
 637 640 650 648 664 653 c 0
 679 658 693 660 707 657 c 0
 716 656 726 653 737 648 c 0
 744 646 753 642 766 636 c 0
EndSplineSet
Validated: 33
EndChar

StartChar: J
Encoding: 74 74 9
Width: 1024
VWidth: 0
Flags: HW
LayerCount: 2
Fore
SplineSet
706 622 m 2
 799 529 l 1
 802 516 l 1
 797 507 l 2
 786 487 776 472 766 462 c 0
 756 452 750 444 746 440 c 1
 756 436 767 433 781 428 c 0
 808 422 836 416 863 408 c 0
 871 397 873 384 872 370 c 0
 871 361 870 353 871 344 c 0
 872 319 872 293 872 267 c 0
 872 264 872 262 871 260 c 0
 870 258 870 255 869 253 c 2
 764 202 l 1
 800 86 l 2
 786 75 773 64 762 52 c 0
 760 50 759 48 758 47 c 0
 749 38 740 30 731 22 c 0
 725 17 719 10 713 1 c 0
 686 2 661 12 636 29 c 0
 633 30 630 31 628 32 c 0
 620 35 612 30 606 17 c 0
 602 8 597 -1 591 -10 c 0
 588 -14 585 -19 581 -24 c 0
 580 -26 579 -29 578 -32 c 0
 575 -43 570 -51 562 -58 c 0
 554 -59 548 -60 544 -60 c 2
 512 -58 l 2
 506 -58 501 -58 496 -59 c 0
 463 -59 463 -59 434 -59 c 0
 432 -59 430 -59 428 -58 c 0
 415 -48 406 -34 401 -15 c 0
 400 -12 400 -10 399 -9 c 0
 398 -6 396 -3 395 -1 c 0
 390 8 385 16 380 25 c 0
 377 30 375 34 373 39 c 1
 341 26 308 15 276 5 c 0
 269 3 265 2 262 3 c 0
 240 15 221 32 207 52 c 0
 205 56 203 58 200 61 c 0
 196 65 192 70 189 74 c 0
 187 77 186 81 184 85 c 0
 190 122 204 157 225 192 c 1
 125 233 l 2
 120 248 117 265 116 283 c 0
 116 289 115 295 114 300 c 0
 113 306 113 313 112 318 c 0
 111 336 113 352 119 367 c 0
 120 370 122 373 123 376 c 0
 145 390 168 399 191 402 c 0
 192 403 195 404 197 405 c 0
 200 407 203 409 206 410 c 0
 211 413 218 417 224 420 c 2
 219 443 l 2
 215 452 211 460 208 469 c 0
 202 483 199 499 198 515 c 0
 219 543 244 570 273 597 c 0
 278 602 284 607 289 611 c 0
 319 604 351 593 385 579 c 0
 393 587 398 596 402 606 c 0
 411 626 421 646 432 666 c 0
 433 669 436 673 439 675 c 0
 476 677 512 679 549 680 c 0
 552 679 555 678 558 677 c 0
 559 676 561 675 563 674 c 0
 582 642 595 609 603 577 c 1
 612 580 619 585 627 590 c 0
 638 595 648 600 660 605 c 0
 672 611 685 617 699 622 c 0
 702 622 702 622 706 622 c 2
537 465 m 0
 509 473 483 476 457 473 c 0
 452 472 446 471 439 468 c 0
 417 457 396 445 377 429 c 0
 356 413 343 391 338 364 c 0
 334 338 333 312 337 288 c 0
 340 261 352 238 370 218 c 0
 388 198 411 183 440 173 c 0
 462 164 484 158 507 157 c 0
 532 155 553 162 571 178 c 0
 585 189 599 201 612 212 c 0
 622 220 631 230 637 243 c 0
 643 257 650 269 655 281 c 0
 659 289 662 297 662 306 c 0
 661 318 659 329 657 340 c 0
 654 360 645 382 632 404 c 0
 618 425 601 440 579 449 c 0
 565 455 551 460 537 465 c 0
EndSplineSet
Validated: 33
EndChar

StartChar: K
Encoding: 75 75 10
Width: 1024
VWidth: 0
Flags: HW
LayerCount: 2
Fore
SplineSet
461 555 m 0
 464 537 465 515 462 489 c 0
 460 472 459 458 458 447 c 0
 457 431 456 417 454 403 c 2
 453 387 l 2
 452 358 454 319 457 271 c 2
 470 91 l 2
 472 72 470 58 468 49 c 0
 468 47 467 44 466 42 c 0
 467 39 467 35 466 30 c 0
 466 29 466 30 466 28 c 0
 466 19 464 9 457 -1 c 0
 451 -9 442 -14 433 -18 c 0
 419 -25 399 -29 372 -29 c 0
 335 -29 304 -28 278 -24 c 0
 265 -21 257 -17 253 -13 c 0
 248 -8 245 0 244 11 c 0
 239 47 237 101 240 174 c 0
 248 336 250 457 247 539 c 0
 245 553 247 566 250 576 c 0
 251 578 251 579 252 581 c 0
 251 583 251 586 251 589 c 0
 251 590 252 594 254 598 c 0
 259 604 265 607 273 609 c 2
 282 615 l 2
 287 617 292 619 298 619 c 0
 331 622 367 623 404 620 c 0
 418 618 426 616 428 615 c 0
 435 613 443 608 449 602 c 2
 457 594 l 1
 459 566 l 2
 460 563 460 559 461 555 c 0
774 601 m 0
 786 593 794 580 796 563 c 0
 797 553 797 539 796 519 c 0
 791 457 790 382 791 296 c 0
 794 197 795 122 796 73 c 0
 797 49 796 30 792 15 c 0
 787 -7 776 -22 760 -31 c 0
 746 -40 724 -42 695 -41 c 2
 641 -39 l 2
 618 -37 604 -33 596 -28 c 0
 581 -18 574 4 574 37 c 2
 572 269 l 2
 573 295 575 334 577 386 c 0
 579 432 577 471 575 503 c 0
 574 533 574 552 574 561 c 0
 577 583 587 599 603 609 c 0
 614 616 633 618 659 617 c 2
 728 613 l 2
 750 612 765 607 774 601 c 0
EndSplineSet
Validated: 33
EndChar

StartChar: L
Encoding: 76 76 11
Width: 1024
VWidth: 0
Flags: HW
LayerCount: 2
Fore
SplineSet
790 466 m 0
 806 443 818 419 828 392 c 0
 835 373 840 354 842 334 c 0
 843 314 843 294 842 273 c 0
 840 233 830 196 814 161 c 0
 806 143 796 126 786 109 c 0
 740 28 671 -20 581 -36 c 0
 546 -40 510 -41 473 -37 c 0
 438 -32 406 -21 380 -2 c 0
 374 3 371 9 369 16 c 0
 367 25 368 32 371 39 c 0
 376 50 381 60 388 70 c 0
 407 97 425 124 441 151 c 0
 450 164 461 175 475 184 c 0
 497 183 520 179 545 174 c 0
 562 177 577 181 591 187 c 0
 616 199 630 218 636 245 c 0
 639 259 642 273 645 287 c 0
 651 326 646 364 628 399 c 2
 603 415 l 2
 566 438 526 450 483 449 c 0
 473 447 464 444 454 441 c 2
 449 434 l 1
 532 390 l 2
 538 373 537 359 529 345 c 0
 502 304 467 270 423 245 c 0
 410 237 397 230 383 224 c 0
 338 201 293 187 247 182 c 0
 238 181 231 183 223 188 c 0
 214 194 207 202 203 211 c 0
 189 241 178 273 172 305 c 0
 164 348 159 392 156 436 c 0
 155 460 155 483 158 506 c 0
 159 516 162 526 167 534 c 0
 171 540 176 544 181 549 c 0
 196 554 210 553 222 544 c 0
 240 532 258 519 276 505 c 1
 314 559 363 594 424 609 c 0
 445 615 466 620 487 623 c 0
 584 632 666 601 734 532 c 0
 755 512 774 490 790 466 c 0
EndSplineSet
Validated: 33
EndChar

StartChar: M
Encoding: 77 77 12
Width: 1024
VWidth: 0
Flags: HW
LayerCount: 2
Fore
SplineSet
559 170 m 0
 558 137 555 105 552 72 c 0
 551 59 549 44 547 30 c 0
 543 10 538 -9 531 -26 c 0
 522 -45 508 -58 489 -67 c 2
 489 -67 l 2
 473 -74 457 -76 439 -74 c 0
 409 -71 382 -59 361 -37 c 0
 361 -36 l 0
 354 -29 348 -22 345 -13 c 2
 346 -13 l 2
 341 -2 338 10 337 22 c 2
 337 23 l 2
 337 28 338 33 339 39 c 0
 339 42 341 44 343 45 c 0
 358 55 371 55 384 44 c 2
 383 44 l 2
 388 41 393 36 397 30 c 0
 397 29 l 0
 399 25 402 20 403 14 c 2
 403 14 l 2
 406 1 414 -6 426 -8 c 1
 426 -8 l 0
 436 -10 447 -12 458 -14 c 0
 477 -5 490 11 495 33 c 0
 500 56 503 79 504 102 c 0
 504 120 506 138 508 155 c 0
 512 181 511 206 505 232 c 0
 499 257 498 280 504 303 c 0
 506 312 511 319 518 324 c 0
 519 325 521 326 523 326 c 0
 537 329 548 324 557 312 c 0
 561 306 563 298 563 289 c 0
 562 249 560 209 559 170 c 0
587 612 m 0
 600 609 614 607 627 604 c 0
 640 600 653 596 666 592 c 0
 683 586 700 579 716 571 c 0
 734 563 752 554 769 542 c 0
 784 531 797 519 809 506 c 0
 823 492 834 476 845 459 c 0
 852 447 860 435 866 423 c 0
 875 407 883 391 891 374 c 0
 902 351 907 328 906 302 c 0
 906 293 904 285 903 276 c 0
 901 266 896 261 885 258 c 0
 879 257 872 258 866 261 c 0
 855 266 846 273 837 280 c 0
 822 293 807 305 793 318 c 0
 781 330 766 335 749 332 c 0
 741 332 734 330 727 326 c 0
 713 318 702 307 692 294 c 0
 684 284 675 276 666 269 c 0
 654 260 642 259 629 265 c 0
 617 271 608 280 601 293 c 0
 588 317 568 331 540 335 c 0
 509 334 484 322 466 298 c 0
 460 290 454 283 448 277 c 0
 444 273 439 269 434 267 c 0
 425 263 417 263 408 266 c 0
 402 268 396 271 392 276 c 0
 381 288 370 301 359 314 c 0
 344 331 327 338 305 334 c 0
 292 332 279 328 266 324 c 0
 246 318 229 306 217 288 c 0
 214 284 211 279 208 275 c 0
 199 262 189 260 177 268 c 0
 171 272 167 278 167 287 c 0
 167 304 168 321 169 338 c 0
 170 355 173 372 178 388 c 0
 184 408 191 427 201 446 c 0
 210 463 220 479 231 494 c 0
 237 502 243 509 251 515 c 0
 266 527 282 538 298 548 c 0
 315 558 333 567 351 575 c 0
 369 583 386 591 404 598 c 0
 414 601 425 604 435 607 c 0
 456 611 478 616 499 620 c 0
 500 627 499 626 500 633 c 0
 500 639 500 644 501 647 c 0
 501 648 502 648 502 649 c 0
 502 652 503 654 503 656 c 0
 505 664 510 669 516 674 c 0
 522 679 529 682 537 682 c 0
 545 682 552 679 558 674 c 0
 564 669 568 663 570 655 c 0
 571 651 571 648 571 645 c 0
 572 635 573 625 573 615 c 0
 577 614 582 613 587 612 c 0
EndSplineSet
Validated: 33
EndChar

StartChar: N
Encoding: 78 78 13
Width: 1024
VWidth: 0
Flags: HW
LayerCount: 2
Fore
SplineSet
759 445 m 0
 771 444 782 443 793 441 c 0
 814 435 831 425 846 414 c 0
 867 398 875 378 872 351 c 0
 868 320 853 293 827 269 c 0
 808 251 787 237 763 224 c 0
 757 220 750 215 742 211 c 0
 743 207 744 203 746 199 c 0
 753 176 759 154 765 132 c 0
 771 108 777 82 781 54 c 0
 784 33 778 14 764 -3 c 0
 734 -37 697 -47 653 -34 c 0
 628 -26 605 -15 582 -2 c 0
 563 10 544 22 525 35 c 0
 517 40 518 41 510 46 c 0
 509 46 l 2
 509 46 l 2
 501 41 502 40 494 35 c 0
 476 22 457 10 438 -2 c 0
 415 -15 392 -26 366 -34 c 0
 323 -47 285 -37 255 -3 c 0
 240 14 235 33 239 54 c 0
 243 82 248 108 253 132 c 0
 259 154 265 176 273 199 c 0
 274 203 275 207 276 211 c 0
 268 215 261 220 255 224 c 0
 231 237 210 251 191 269 c 0
 166 293 151 320 147 351 c 0
 143 378 152 398 173 414 c 0
 187 425 205 435 226 441 c 0
 237 443 248 444 260 445 c 0
 297 450 336 452 376 452 c 1
 383 507 409 560 454 611 c 0
 464 626 477 637 494 643 c 0
 499 644 504 645 509 646 c 2
 509 647 l 2
 510 646 l 0
 515 645 520 644 525 643 c 0
 542 637 555 626 565 611 c 0
 610 560 636 507 644 452 c 1
 684 452 722 450 759 445 c 0
EndSplineSet
Validated: 37
EndChar

StartChar: O
Encoding: 79 79 14
Width: 1024
VWidth: 0
Flags: HW
LayerCount: 2
Fore
SplineSet
562 21 m 2
 573 16 576 5 572 -11 c 0
 571 -16 568 -21 565 -24 c 0
 557 -32 550 -35 540 -36 c 0
 520 -36 500 -32 480 -26 c 0
 452 -24 427 -15 404 1 c 0
 400 4 399 8 399 16 c 0
 399 31 405 42 416 47 c 0
 426 52 435 53 444 51 c 0
 467 42 490 35 514 32 c 0
 526 31 537 31 549 30 c 2
 562 21 l 2
851 618 m 0
 855 615 859 610 862 604 c 0
 867 595 869 585 869 575 c 0
 869 557 865 541 857 527 c 0
 852 518 845 511 838 506 c 0
 828 499 818 491 809 483 c 0
 788 465 766 450 743 438 c 0
 723 428 702 421 682 415 c 0
 658 407 634 401 609 395 c 0
 606 395 603 393 601 392 c 1
 618 391 636 392 654 395 c 0
 666 398 678 401 690 404 c 0
 699 406 707 409 715 412 c 0
 732 418 749 425 765 432 c 0
 779 438 792 445 805 451 c 0
 807 452 810 453 812 453 c 0
 819 450 823 442 825 432 c 0
 826 426 825 421 824 417 c 0
 821 408 816 401 809 397 c 0
 770 373 730 357 689 348 c 0
 672 344 655 339 637 335 c 0
 603 326 568 320 534 317 c 1
 557 312 579 308 601 306 c 0
 612 305 623 304 634 303 c 0
 638 304 643 304 646 304 c 0
 654 305 660 306 667 307 c 0
 685 310 702 316 719 325 c 0
 731 332 740 328 747 314 c 0
 748 311 748 307 748 302 c 0
 747 297 746 291 744 286 c 0
 740 278 736 271 730 265 c 0
 722 257 714 249 705 241 c 0
 696 234 687 227 678 222 c 0
 663 214 649 207 635 201 c 0
 583 178 530 164 477 158 c 0
 447 156 417 156 387 159 c 1
 402 154 416 151 430 149 c 0
 461 148 493 146 524 144 c 0
 527 144 530 143 533 143 c 0
 542 144 551 144 560 146 c 0
 571 148 582 151 593 155 c 0
 604 158 613 158 621 154 c 0
 627 150 631 144 633 136 c 0
 637 123 634 112 626 103 c 0
 610 85 591 75 571 73 c 0
 518 70 467 75 416 89 c 0
 396 94 375 100 356 107 c 0
 346 110 337 114 328 120 c 0
 311 130 293 140 276 151 c 0
 262 161 251 173 241 189 c 0
 238 196 235 203 233 211 c 0
 231 220 230 229 233 238 c 0
 235 246 239 249 244 248 c 0
 258 249 272 249 286 247 c 0
 347 231 409 224 471 227 c 0
 496 228 520 232 543 240 c 1
 517 243 490 246 464 250 c 0
 451 252 437 255 423 257 c 0
 414 259 407 261 398 262 c 0
 380 266 362 270 344 274 c 0
 318 283 292 294 266 307 c 0
 247 316 227 329 210 344 c 0
 198 354 189 366 182 382 c 0
 177 393 173 403 169 414 c 0
 167 418 166 422 166 426 c 0
 165 435 168 443 172 453 c 0
 183 478 197 500 215 517 c 0
 225 526 235 533 245 540 c 0
 259 549 273 558 288 566 c 0
 306 577 325 588 343 598 c 0
 349 601 355 603 360 605 c 0
 373 609 385 614 398 618 c 0
 424 626 449 632 475 636 c 0
 498 639 521 642 544 643 c 0
 559 645 575 646 590 647 c 0
 616 648 641 650 666 651 c 0
 691 651 714 649 738 646 c 0
 752 647 767 648 781 647 c 0
 807 646 830 636 851 618 c 0
778 577 m 0
 753 583 728 586 702 584 c 0
 646 579 591 573 534 566 c 0
 499 562 463 553 429 538 c 0
 414 532 401 526 387 522 c 0
 377 518 367 514 358 510 c 0
 346 506 335 503 323 499 c 0
 295 487 268 473 241 455 c 0
 236 451 230 447 225 444 c 2
 228 438 l 2
 243 438 258 438 273 437 c 0
 329 438 386 439 442 442 c 0
 486 444 529 450 573 459 c 0
 587 462 600 464 615 466 c 0
 630 469 644 474 659 480 c 0
 679 489 700 498 720 507 c 0
 745 518 771 531 797 546 c 0
 804 550 809 556 812 564 c 1
 801 568 789 573 778 577 c 0
EndSplineSet
Validated: 33
EndChar

StartChar: P
Encoding: 80 80 15
Width: 1024
VWidth: 0
Flags: HW
LayerCount: 2
Fore
SplineSet
541 459 m 0
 561 458 579 454 597 448 c 0
 606 445 614 439 621 433 c 0
 624 430 627 426 630 422 c 0
 636 413 637 403 635 391 c 0
 632 377 627 366 618 355 c 0
 612 347 605 340 595 336 c 0
 590 333 584 331 579 329 c 0
 577 328 575 327 574 326 c 0
 573 323 573 320 572 317 c 0
 564 290 561 263 562 235 c 0
 562 222 562 210 563 198 c 0
 565 159 568 121 572 82 c 1
 600 80 620 65 631 38 c 0
 636 26 636 14 632 1 c 0
 630 -5 627 -12 624 -17 c 0
 621 -22 617 -28 612 -32 c 0
 609 -35 605 -38 601 -40 c 0
 595 -44 588 -47 579 -50 c 0
 574 -51 574 -51 569 -52 c 0
 528 -58 486 -58 444 -52 c 0
 427 -50 411 -47 396 -42 c 0
 388 -39 382 -35 379 -27 c 0
 375 -18 371 -8 366 2 c 0
 365 4 365 8 365 13 c 0
 366 23 368 33 373 43 c 0
 376 49 382 55 388 60 c 0
 394 65 400 69 406 73 c 0
 411 77 416 80 423 82 c 0
 426 99 428 117 427 134 c 0
 426 175 424 216 423 257 c 0
 423 265 423 272 424 281 c 0
 425 296 427 311 428 326 c 0
 413 329 399 333 386 340 c 0
 379 344 375 349 373 357 c 0
 371 364 370 371 371 379 c 0
 372 391 376 402 381 413 c 0
 386 422 392 430 400 437 c 0
 404 441 410 444 416 445 c 0
 424 448 432 452 441 454 c 0
 468 459 495 461 524 460 c 0
 532 459 533 460 541 459 c 0
575 628 m 0
 579 614 582 600 584 585 c 0
 588 558 581 536 563 518 c 0
 554 509 543 502 530 497 c 0
 523 494 523 493 516 490 c 0
 489 488 464 495 440 508 c 0
 435 511 430 515 426 520 c 0
 421 526 418 533 415 540 c 0
 411 550 408 560 406 571 c 0
 401 600 408 625 428 645 c 0
 430 647 433 649 436 650 c 0
 441 653 446 655 451 658 c 0
 476 668 503 671 531 666 c 0
 554 662 568 650 575 628 c 0
EndSplineSet
Validated: 33
EndChar

StartChar: Q
Encoding: 81 81 16
Width: 1024
VWidth: 0
Flags: H
LayerCount: 2
Fore
SplineSet
200.793945312 178.283203125 m 0
 210.009440104 181.696614583 220.078776042 181.355143229 231.001953125 177.258789062 c 2
 231.513671875 177.258789062 l 2
 254.3828125 168.725585938 271.449544271 154.389648438 282.713867188 134.250976562 c 2
 282.713867188 133.739257812 l 2
 286.468424479 126.571289062 287.151041667 118.379231771 284.76171875 109.163085938 c 0
 282.713541667 100.629882812 278.788085938 92.779296875 272.985351562 85.611328125 c 0
 265.817382812 77.078125 258.137369792 69.3981119792 249.9453125 62.5712890625 c 0
 233.220052083 48.9176432292 214.276041667 43.626953125 193.11328125 46.69921875 c 0
 182.873697917 46.3580729167 174.681640625 50.2835286458 168.537109375 58.4755859375 c 0
 167.854817708 58.8167317708 167.513671875 59.1578776042 167.513671875 59.4990234375 c 0
 164.100260417 63.2535807292 161.198893229 67.349609375 158.809570312 71.787109375 c 0
 150.617513021 81.3444010417 145.838867188 92.4378255208 144.473632812 105.067382812 c 0
 143.449544271 113.600585938 144.473632812 121.963216146 147.545898438 130.155273438 c 2
 147.545898438 130.666992188 l 2
 156.079101562 156.267252604 173.145507812 171.96875 198.745117188 177.771484375 c 0
 199.086914062 178.112630208 199.428385417 178.283203125 199.76953125 178.283203125 c 0
 200.28125 178.283203125 200.28125 178.283203125 200.793945312 178.283203125 c 0
149.08203125 291.947265625 m 0
 149.08203125 292.630208333 148.911132812 292.971679688 148.569335938 292.971679688 c 0
 143.108398438 302.870117188 142.255208333 312.597981771 146.009765625 322.155273438 c 2
 146.009765625 322.666992188 l 2
 159.662760417 356.800455729 184.409505208 377.792643229 220.25 385.643554688 c 0
 221.2734375 385.984700521 222.468098958 386.155273438 223.833984375 386.155273438 c 0
 254.212239583 385.472330729 279.812174479 375.744466146 300.633789062 356.971679688 c 0
 300.974934896 356.971679688 301.145507812 356.80078125 301.145507812 356.458984375 c 0
 306.265299479 351.680338542 309.508138021 345.536458333 310.874023438 338.02734375 c 2
 310.361328125 338.5390625 l 2
 311.7265625 332.395182292 312.068033854 326.080403646 311.385742188 319.594726562 c 2
 311.385742188 319.083007812 l 2
 308.996419271 307.477539062 303.876302083 296.896158854 296.025390625 287.338867188 c 0
 288.857421875 278.464518229 280.153645833 269.419270833 269.9140625 260.203125 c 2
 270.42578125 261.227539062 l 2
 260.868489583 251.670247396 250.116536458 246.379557292 238.169921875 245.35546875 c 2
 237.657226562 245.35546875 l 2
 210.009440104 243.6484375 185.945638021 252.864257812 165.465820312 273.002929688 c 2
 164.953125 273.002929688 l 2
 158.809244792 279.146809896 153.518880208 285.461588542 149.08203125 291.947265625 c 0
246.874023438 571.499023438 m 0
 266.329752604 563.989908854 282.713541667 551.53125 296.025390625 534.123046875 c 0
 304.55859375 522.859375 307.118815104 509.888671875 303.706054688 495.2109375 c 2
 304.217773438 495.723632812 l 2
 299.780273438 477.632486979 291.076171875 462.1015625 278.10546875 449.130859375 c 2
 278.10546875 448.619140625 l 2
 267.865234375 439.061848958 256.942708333 432.405924479 245.337890625 428.651367188 c 0
 242.948567708 427.968424479 240.729817708 427.797851562 238.681640625 428.139648438 c 0
 208.64453125 432.918294271 183.044596354 447.595377604 161.881835938 472.170898438 c 2
 161.881835938 472.68359375 l 2
 147.545898438 490.091145833 145.668619792 507.669596354 156.25 525.418945312 c 2
 156.25 524.907226562 l 2
 167.513671875 546.069986979 184.409505208 559.893880208 206.9375 566.37890625 c 0
 207.278645833 566.720703125 207.620117188 566.891601562 207.961914062 566.891601562 c 0
 214.446940104 569.280924479 221.614908854 570.3046875 229.465820312 569.962890625 c 0
 232.196289062 570.986979167 235.09765625 571.669596354 238.169921875 572.010742188 c 0
 240.900390625 572.693684896 243.801757812 572.523111979 246.874023438 571.499023438 c 0
833.11328125 61.546875 m 0
 829.017578125 58.81640625 824.580403646 56.5979817708 819.801757812 54.8916015625 c 0
 818.436523438 54.5498046875 817.071289062 54.2083333333 815.706054688 53.8671875 c 0
 778.159179688 50.4537760417 740.612304688 46.8697916667 703.065429688 43.115234375 c 0
 702.553710938 43.115234375 702.553710938 43.115234375 702.041992188 43.115234375 c 0
 663.812174479 42.0911458333 625.753255208 41.5791015625 587.865234375 41.5791015625 c 0
 549.977213542 41.5791015625 511.918619792 42.0911458333 473.689453125 43.115234375 c 0
 473.177734375 43.115234375 473.177734375 43.115234375 472.666015625 43.115234375 c 0
 434.436197917 46.8697916667 396.377278646 50.4537760417 358.489257812 53.8671875 c 2
 357.977539062 53.8671875 l 2
 332.719075521 56.939453125 317.529622396 70.4222005208 312.409179688 94.3154296875 c 0
 307.289388021 116.501627604 312.921549479 134.080078125 329.305664062 147.05078125 c 0
 329.646809896 147.05078125 329.817382812 147.221679688 329.817382812 147.563476562 c 0
 336.985351562 153.024414062 345.177408854 156.778971354 354.393554688 158.827148438 c 0
 355.758789062 159.168294271 357.124023438 159.338867188 358.489257812 159.338867188 c 0
 388.527018229 158.997721354 418.735026042 158.827148438 449.11328125 158.827148438 c 0
 478.468098958 158.827148438 508.1640625 158.997721354 538.201171875 159.338867188 c 0
 567.21484375 160.704101562 596.569661458 162.069661458 626.265625 163.435546875 c 0
 655.278645833 165.824869792 684.462565104 168.214192708 713.817382812 170.603515625 c 2
 712.793945312 170.090820312 l 2
 741.124674479 173.846028646 768.601888021 172.480794271 795.225585938 165.995117188 c 2
 795.737304688 165.995117188 l 2
 823.043945312 158.486002604 839.257486979 140.736653646 844.377929688 112.747070312 c 0
 845.402018229 106.603190104 846.084635417 100.117838542 846.42578125 93.291015625 c 2
 846.42578125 92.779296875 l 2
 847.449869792 79.4674479167 843.353841146 69.2275390625 834.137695312 62.0595703125 c 0
 833.454752604 62.0595703125 833.11328125 61.888671875 833.11328125 61.546875 c 0
865.881835938 262.763671875 m 0
 858.713867188 248.768880208 846.767252604 240.747395833 830.041992188 238.69921875 c 0
 668.249674479 212.075520833 509.529622396 222.827473958 353.881835938 270.955078125 c 1
 354.393554688 270.955078125 l 2
 340.740559896 274.368489583 333.9140625 283.755208333 333.9140625 299.115234375 c 0
 333.9140625 321.302083333 343.471354167 339.563476562 362.5859375 353.899414062 c 2
 362.5859375 354.411132812 l 2
 377.604166667 366.357747396 394.5 371.819010417 413.2734375 370.794921875 c 0
 413.614583333 370.794921875 413.956054688 370.624348958 414.297851562 370.283203125 c 0
 426.926757812 368.91796875 439.385416667 367.040690104 451.673828125 364.651367188 c 0
 473.518880208 361.237955729 495.534830729 358.848632812 517.721679688 357.483398438 c 0
 518.403971354 357.483398438 519.086588542 357.312825521 519.76953125 356.971679688 c 0
 535.470703125 353.899414062 551.342773438 351.851236979 567.385742188 350.827148438 c 0
 627.118815104 349.120768229 686.510742188 353.728841146 745.561523438 364.651367188 c 0
 745.902669271 364.992513021 746.244140625 365.163085938 746.5859375 365.163085938 c 0
 776.964192708 368.576497396 805.977539062 364.651041667 833.625976562 353.38671875 c 0
 845.230794271 349.632161458 853.934570312 342.464192708 859.737304688 331.8828125 c 2
 859.225585938 332.395507812 l 2
 870.831054688 312.597981771 873.390950521 290.411132812 866.905273438 265.834960938 c 0
 866.564127604 264.810872396 866.222981771 263.787109375 865.881835938 262.763671875 c 0
873.049804688 503.915039062 m 0
 876.121419271 501.525716146 878.169270833 498.453776042 879.193359375 494.69921875 c 0
 882.265625 481.387369792 878.852213542 470.46484375 868.953125 461.931640625 c 2
 868.44140625 461.418945312 l 2
 863.321614583 456.982096354 858.372395833 452.374023438 853.59375 447.594726562 c 2
 853.08203125 447.083007812 l 2
 841.817708333 436.843424479 828.334960938 429.163411458 812.633789062 424.04296875 c 2
 811.609375 424.04296875 l 2
 786.692057292 417.557942708 761.774739583 413.6328125 736.857421875 412.267578125 c 0
 612.611979167 400.320963542 491.267903646 414.315429688 372.825195312 454.250976562 c 0
 365.316080729 456.640299479 359.172200521 461.077799479 354.393554688 467.563476562 c 0
 349.956054688 473.366210938 348.078776042 479.8515625 348.76171875 487.01953125 c 0
 349.444010417 494.528645833 351.833333333 501.525716146 355.9296875 508.010742188 c 2
 355.9296875 508.5234375 l 2
 366.852213542 525.930989583 381.870768229 539.242838542 400.985351562 548.458984375 c 0
 426.926757812 561.088541667 453.721354167 565.8671875 481.369140625 562.794921875 c 0
 530.180338542 556.651041667 579.161783854 555.797851562 628.313476562 560.235351562 c 0
 660.739908854 565.696289062 693.849283854 567.061523438 727.641601562 564.331054688 c 0
 769.625325521 559.893554688 808.195963542 546.581705729 843.353515625 524.395507812 c 0
 853.251953125 518.251627604 863.150716146 511.424804688 873.049804688 503.915039062 c 0
EndSplineSet
EndChar

StartChar: R
Encoding: 82 82 17
Width: 1024
VWidth: 0
Flags: H
LayerCount: 2
Fore
SplineSet
822.2109375 91.7041015625 m 0
 819.821614583 43.2347005208 812.141601562 -4.21061197917 799.170898438 -50.6318359375 c 0
 797.805664062 -56.0934244792 795.245768229 -60.8720703125 791.491210938 -64.9677734375 c 0
 788.077799479 -69.4052734375 783.810872396 -72.9892578125 778.690429688 -75.7197265625 c 0
 740.802408854 -95.1761067708 700.695963542 -104.05078125 658.37109375 -102.34375 c 0
 632.770833333 -101.661458333 607.170572917 -99.9547526042 581.5703125 -97.2236328125 c 0
 577.474609375 -94.8343098958 573.208007812 -92.6158854167 568.770507812 -90.568359375 c 0
 568.429361979 -90.2265625 568.088216146 -90.0556640625 567.747070312 -90.0556640625 c 0
 558.189778646 -82.5465494792 552.557617188 -72.9892578125 550.850585938 -61.3837890625 c 0
 545.389648438 -24.1787109375 542.147135417 13.5384114583 541.123046875 51.767578125 c 0
 539.7578125 106.039713542 509.720377604 133.005208333 451.010742188 132.6640625 c 0
 408.344075521 128.567708333 385.816080729 105.357096354 383.426757812 63.0322265625 c 0
 381.037434896 23.7789713542 377.965494792 -14.9625651042 374.2109375 -53.1923828125 c 0
 373.186848958 -57.2880859375 372.333333333 -61.3841145833 371.650390625 -65.48046875 c 0
 370.626953125 -70.94140625 369.26171875 -75.890625 367.5546875 -80.328125 c 0
 357.65625 -86.4720052083 347.074869792 -91.080078125 335.810546875 -94.15234375 c 0
 332.055989583 -95.1764322917 328.642578125 -96.37109375 325.5703125 -97.736328125 c 0
 314.306640625 -97.736328125 304.749348958 -99.4430338542 296.8984375 -102.856445312 c 0
 293.826822917 -102.173502604 290.754882812 -101.490559896 287.682617188 -100.807617188 c 0
 271.640299479 -95.6878255208 256.451171875 -88.3492838542 242.115234375 -78.7919921875 c 0
 217.5390625 -61.3837890625 207.469726562 -38.0026041667 211.907226562 -8.6484375 c 0
 214.637695312 9.78385416667 216.002929688 28.2161458333 216.002929688 46.6484375 c 0
 216.002929688 90.16796875 216.002929688 90.16796875 216.002929688 133.17578125 c 1
 182.210611979 127.031901042 155.245117188 136.760091146 135.106445312 162.360351562 c 0
 123.501627604 177.720377604 120.088541667 194.275065104 124.8671875 212.024414062 c 0
 126.914713542 219.192382812 130.157226562 225.336263021 134.594726562 230.456054688 c 0
 149.954752604 250.253580729 166.338867188 269.197591146 183.747070312 287.288085938 c 0
 218.903971354 323.469075521 255.085286458 358.967773438 292.291015625 393.784179688 c 0
 328.813802083 428.599934896 364.141601562 464.269205729 398.274414062 500.791992188 c 0
 419.437174479 524.002929688 441.111979167 546.360351562 463.298828125 567.864257812 c 0
 466.029296875 570.594726562 468.930664062 572.984049479 472.002929688 575.032226562 c 0
 472.344075521 580.152018229 473.368164062 585.442708333 475.075195312 590.904296875 c 0
 481.560221354 611.725260417 484.632161458 633.229166667 484.291015625 655.416015625 c 0
 483.94921875 678.968098958 491.1171875 696.205403646 505.794921875 707.127929688 c 0
 507.16015625 708.493164062 508.695963542 709.517252604 510.40234375 710.200195312 c 0
 514.498697917 712.930664062 519.27734375 715.149414062 524.73828125 716.856445312 c 0
 541.805338542 709.687825521 553.069335938 699.277018229 558.530273438 685.624023438 c 0
 567.064127604 687.672200521 575.938802083 688.866861979 585.154296875 689.208007812 c 0
 626.455729167 685.453450521 659.39453125 666.338867188 683.970703125 631.864257812 c 0
 696.94140625 613.773111979 714.861328125 607.1171875 737.73046875 611.896484375 c 0
 752.749348958 614.968098958 767.938802083 617.698567708 783.298828125 620.087890625 c 0
 794.5625 621.794921875 802.583658854 617.698893229 807.362304688 607.799804688 c 0
 819.991861979 582.200195312 811.970703125 564.109700521 783.298828125 553.528320312 c 0
 716.738932292 529.635091146 662.125651042 544.483072917 619.458984375 598.072265625 c 0
 606.829427083 614.114583333 591.639973958 622.647786458 573.890625 623.671875 c 0
 566.72265625 623.330729167 559.5546875 622.136067708 552.38671875 620.087890625 c 0
 550.338541667 609.84765625 549.314453125 599.607747396 549.314453125 589.368164062 c 0
 549.314453125 582.882486979 548.802408854 576.909179688 547.778320312 571.448242188 c 0
 551.874674479 569.058919271 555.970703125 566.669596354 560.06640625 564.280273438 c 0
 586.349609375 547.213216146 610.413736979 526.733072917 632.258789062 502.83984375 c 0
 647.618815104 486.455729167 662.808268229 469.901041667 677.827148438 453.17578125 c 0
 707.864257812 418.360026042 739.778645833 385.421549479 773.5703125 354.360351562 c 0
 789.954427083 339.682617188 805.997395833 324.322591146 821.69921875 308.280273438 c 0
 837.400390625 291.213216146 853.954752604 274.999674479 871.362304688 259.639648438 c 0
 876.482747396 254.519856771 881.7734375 249.400065104 887.234375 244.280273438 c 0
 891.330729167 239.842773438 894.402994792 234.72265625 896.451171875 228.919921875 c 0
 902.253255208 215.94921875 902.764973958 202.807942708 897.986328125 189.49609375 c 0
 886.381510417 156.727864583 862.829752604 141.026367188 827.331054688 142.391601562 c 0
 824.941731771 125.666341146 823.235026042 108.770507812 822.2109375 91.7041015625 c 0
EndSplineSet
EndChar

StartChar: S
Encoding: 83 83 18
Width: 1024
VWidth: 0
Flags: H
LayerCount: 2
Fore
SplineSet
813.962890625 407.108398438 m 0
 853.216145833 338.841471354 833.418619792 283.204101562 754.5703125 240.196289062 c 0
 690.05859375 204.697591146 630.837239583 161.518880208 576.90625 110.66015625 c 0
 478.944010417 18.841796875 372.106770833 -50.4488932292 256.39453125 -97.2119140625 c 0
 234.890625 -106.086263021 218.677408854 -98.9182942708 207.754882812 -75.7080078125 c 0
 207.413085938 -75.3662109375 207.071614583 -74.8541666667 206.73046875 -74.171875 c 2
 206.73046875 -74.68359375 l 1
 171.572916667 -3.00325520833 193.418294271 56.388671875 272.266601562 103.4921875 c 0
 334.047851562 140.697916667 391.5625 183.364583333 444.810546875 231.4921875 c 0
 489.525390625 272.111328125 536.288085938 309.316731771 585.098632812 343.108398438 c 1
 450.271809896 415.812174479 328.245117188 503.534830729 219.018554688 606.276367188 c 1
 219.530273438 606.276367188 l 2
 207.242513021 616.857747396 204.512044271 631.364583333 211.338867188 649.796875 c 0
 225.333007812 690.415364583 253.834309896 712.08984375 296.842773438 714.8203125 c 0
 299.914388021 715.161458333 302.815755208 714.308268229 305.546875 712.260742188 c 0
 305.888020833 712.260742188 306.229166667 711.919270833 306.5703125 711.236328125 c 0
 445.834635417 628.975260417 589.024088542 551.833984375 736.138671875 479.8125 c 0
 769.589192708 463.428385417 795.530598958 439.193684896 813.962890625 407.108398438 c 0
EndSplineSet
EndChar

StartChar: T
Encoding: 84 84 19
Width: 1024
VWidth: 0
Flags: H
LayerCount: 2
Fore
SplineSet
576.001953125 386.366210938 m 0
 529.239583333 344.040690104 480.258138021 305.470052083 429.057617188 270.654296875 c 1
 566.273763021 197.267578125 690.348632812 108.350260417 801.282226562 3.90234375 c 0
 801.623372396 3.56119791667 801.964518229 3.04915364583 802.305664062 2.3662109375 c 0
 811.521809896 -6.50813802083 813.399414062 -18.6253255208 807.938476562 -33.9853515625 c 0
 794.284830729 -72.2151692708 767.319335938 -92.6953125 727.041992188 -95.42578125 c 0
 724.993815104 -95.42578125 723.116536458 -94.9137369792 721.41015625 -93.8896484375 c 0
 581.463541667 -11.2867838542 437.762044271 66.3665364583 290.305664062 139.0703125 c 0
 257.538085938 155.11328125 232.279622396 178.665364583 214.530273438 209.7265625 c 0
 176.983398438 274.921223958 196.097981771 328.169270833 271.874023438 369.470703125 c 0
 336.727539062 405.310546875 396.290364583 448.659830729 450.5625 499.518554688 c 0
 547.842447917 590.995768229 654.167643229 659.944986979 769.538085938 706.366210938 c 0
 787.969726562 713.875325521 802.135091146 707.560546875 812.034179688 687.421875 c 0
 812.034179688 687.080729167 812.204752604 686.739583333 812.545898438 686.3984375 c 0
 846.338216146 617.44921875 825.175455729 560.275716146 749.057617188 514.877929688 c 0
 687.276367188 477.672851562 629.591145833 434.835611979 576.001953125 386.366210938 c 0
EndSplineSet
EndChar

StartChar: U
Encoding: 85 85 20
Width: 1024
VWidth: 0
Flags: H
LayerCount: 2
Fore
SplineSet
874.232421875 276.0390625 m 0
 872.184244792 266.823567708 868.088216146 258.631835938 861.944335938 251.463867188 c 2
 861.432617188 250.439453125 l 1
 861.944335938 250.951171875 l 2
 844.536132812 229.788411458 823.032226562 218.865885417 797.432617188 218.18359375 c 0
 775.586914062 216.818359375 754.765625 215.96484375 734.96875 215.623046875 c 0
 713.123046875 213.916666667 691.789713542 212.380859375 670.96875 211.015625 c 2
 669.944335938 211.015625 l 2
 651.170898438 210.674479167 632.397460938 209.479817708 613.624023438 207.431640625 c 2
 613.112304688 207.431640625 l 2
 612.088867188 207.431640625 612.088867188 207.431640625 611.576171875 207.431640625 c 0
 605.7734375 207.431640625 600.82421875 205.212890625 596.728515625 200.775390625 c 2
 596.216796875 199.751953125 l 2
 593.827473958 198.044921875 591.779296875 195.996744792 590.072265625 193.607421875 c 0
 588.024088542 191.559244792 586.829427083 188.657877604 586.48828125 184.903320312 c 0
 584.440104167 171.591471354 583.757486979 158.108723958 584.440429688 144.455078125 c 2
 584.440429688 143.943359375 l 2
 584.781575521 126.194010417 586.317708333 108.444661458 589.048828125 90.6953125 c 0
 592.120442708 66.8020833333 592.803059896 42.9088541667 591.096679688 19.015625 c 2
 591.096679688 17.9912109375 l 2
 588.365559896 -8.63248697917 578.637369792 -31.5016276042 561.912109375 -50.6162109375 c 0
 547.91796875 -66.3180338542 531.704752604 -76.7288411458 513.272460938 -81.8486328125 c 0
 512.931315104 -81.8486328125 512.760742188 -82.0192057292 512.760742188 -82.3603515625 c 0
 511.736653646 -82.7014973958 510.883138021 -83.04296875 510.200195312 -83.384765625 c 2
 509.688476562 -83.384765625 l 2
 499.448242188 -84.75 489.37890625 -85.4326171875 479.48046875 -85.4326171875 c 0
 456.611328125 -85.4326171875 436.814127604 -77.2405598958 420.088867188 -60.8564453125 c 0
 419.405924479 -60.5152994792 418.893880208 -60.0032552083 418.552734375 -59.3203125 c 0
 399.779296875 -41.5709635417 393.293945312 9.28776041667 399.096679688 93.255859375 c 0
 400.803059896 126.0234375 401.315104167 148.892578125 400.6328125 161.86328125 c 0
 399.949869792 174.151692708 397.901692708 186.610351562 394.48828125 199.239257812 c 2
 394.48828125 199.751953125 l 2
 393.805989583 201.458333333 393.293945312 202.994140625 392.952148438 204.359375 c 0
 378.958007812 213.575520833 363.768880208 220.914388021 347.384765625 226.375976562 c 0
 327.587239583 233.202148438 307.107096354 238.663411458 285.944335938 242.759765625 c 0
 268.536132812 246.514322917 250.786783854 250.098307292 232.696289062 253.51171875 c 0
 212.053710938 255.929036458 191.744466146 258.830403646 171.768554688 262.215820312 c 2
 171.256835938 262.215820312 l 2
 167.843424479 262.898111979 165.112630208 264.433919271 163.064453125 266.823242188 c 0
 160.675130208 269.212565104 158.627278646 271.601888021 156.920898438 273.991210938 c 0
 152.824544271 279.793945312 149.923177083 286.108723958 148.216796875 292.935546875 c 2
 148.216796875 293.447265625 l 2
 146.168619792 306.759114583 146.168619792 319.047200521 148.216796875 330.311523438 c 0
 148.216796875 330.823242188 148.216796875 330.823242188 148.216796875 331.3359375 c 0
 154.360677083 359.666015625 168.184570312 380.487304688 189.688476562 393.799804688 c 0
 190.371419271 394.482096354 191.054036458 394.823242188 191.736328125 394.823242188 c 0
 203.341796875 401.991210938 215.117838542 406.769856771 227.064453125 409.159179688 c 0
 227.576171875 409.159179688 227.576171875 409.159179688 228.088867188 409.159179688 c 0
 229.624023438 409.159179688 229.624023438 409.159179688 230.6484375 409.159179688 c 2
 231.16015625 409.159179688 l 2
 250.957682292 408.476888021 270.755208333 409.842447917 290.552734375 413.255859375 c 0
 291.064453125 413.255859375 291.064453125 413.255859375 291.576171875 413.255859375 c 0
 312.056640625 415.303385417 332.366210938 416.156575521 352.504882812 415.815429688 c 2
 353.528320312 415.815429688 l 2
 362.061523438 415.133138021 370.424153646 415.645182292 378.616210938 417.3515625 c 0
 378.958007812 417.692708333 379.299479167 417.86328125 379.640625 417.86328125 c 0
 380.322916667 418.546223958 381.347005208 418.887695312 382.712890625 418.887695312 c 2
 383.736328125 418.887695312 l 2
 389.880208333 419.228841146 398.072265625 420.423502604 408.3125 422.471679688 c 0
 409.336588542 423.153971354 410.360677083 423.495117188 411.384765625 423.495117188 c 2
 411.384765625 424.0078125 l 2
 414.456380208 424.690104167 416.504231771 425.543294271 417.528320312 426.567382812 c 0
 417.528320312 435.100585938 416.163085938 445.511393229 413.432617188 457.799804688 c 0
 413.432617188 459.3359375 413.432617188 459.3359375 413.432617188 460.359375 c 0
 409.678059896 475.378255208 408.483398438 490.055664062 409.848632812 504.391601562 c 0
 410.530924479 518.386393229 411.384114583 532.551757812 412.408203125 546.887695312 c 0
 412.75 560.540690104 413.262044271 573.852539062 413.944335938 586.823242188 c 0
 415.651367188 609.010091146 420.771484375 630.172851562 429.3046875 650.311523438 c 0
 433.400390625 660.209960938 438.691080729 669.426106771 445.176757812 677.959960938 c 0
 445.176757812 678.301106771 445.347330729 678.471679688 445.688476562 678.471679688 c 0
 449.443033854 683.591471354 453.880208333 687.6875 459 690.759765625 c 0
 459.341796875 691.442057292 459.683268229 691.783203125 460.024414062 691.783203125 c 2
 460.536132812 692.295898438 l 2
 461.219075521 692.978190104 462.243164062 693.489908854 463.608398438 693.831054688 c 0
 479.309570312 700.316731771 495.522786458 701.170247396 512.248046875 696.391601562 c 0
 524.1953125 693.319335938 535.118164062 688.19921875 545.016601562 681.03125 c 0
 545.357747396 681.03125 545.528320312 680.860677083 545.528320312 680.51953125 c 1
 545.869466146 680.51953125 546.2109375 680.348958333 546.552734375 680.0078125 c 0
 553.37890625 673.522135417 558.669596354 667.889973958 562.424804688 663.111328125 c 0
 573.688476562 654.236979167 582.733723958 620.103841146 589.560546875 560.711914062 c 0
 596.387369792 503.026367188 597.411458333 458.140950521 592.6328125 426.055664062 c 0
 591.608723958 404.551757812 612.771158854 390.556966146 656.120117188 384.071289062 c 0
 671.138997396 383.388997396 685.81640625 382.535807292 700.15234375 381.51171875 c 0
 715.512369792 380.487630208 730.701822917 379.463541667 745.720703125 378.439453125 c 0
 762.787109375 378.439453125 779.853841146 377.244791667 796.920898438 374.85546875 c 0
 809.891601562 372.807291667 822.861979167 371.100585938 835.83203125 369.735351562 c 0
 845.048177083 368.711263021 853.069661458 364.274088542 859.896484375 356.423828125 c 0
 860.237630208 356.08203125 860.579101562 355.740559896 860.920898438 355.399414062 c 0
 872.184570312 340.380533854 877.645833333 322.97265625 877.3046875 303.17578125 c 0
 877.3046875 294.983723958 876.280598958 286.791666667 874.232421875 278.599609375 c 0
 874.232421875 277.575195312 874.232421875 277.575195312 874.232421875 276.0390625 c 0
EndSplineSet
EndChar

StartChar: V
Encoding: 86 86 21
Width: 1024
VWidth: 0
Flags: H
LayerCount: 2
Fore
SplineSet
454.236328125 59.03515625 m 0
 475.740234375 68.2513020833 497.926757812 75.2486979167 520.795898438 80.02734375 c 0
 529.329101562 81.392578125 536.838541667 80.3684895833 543.32421875 76.955078125 c 0
 556.977213542 73.5423177083 570.630533854 68.251953125 584.284179688 61.083984375 c 0
 602.033528646 45.3821614583 614.4921875 25.5846354167 621.66015625 1.69140625 c 0
 635.99609375 -39.951171875 630.534830729 -79.7164713542 605.276367188 -117.604492188 c 0
 600.497070312 -125.796549479 594.352864583 -131.940429688 586.84375 -136.036132812 c 0
 568.753255208 -146.617513021 549.468098958 -152.76171875 528.98828125 -154.46875 c 0
 494.171875 -159.247395833 463.110351562 -151.737955729 435.803710938 -131.940429688 c 0
 408.838216146 -111.118815104 389.894205729 -83.470703125 378.971679688 -48.99609375 c 0
 376.923502604 -43.193359375 376.582356771 -37.0494791667 377.948242188 -30.564453125 c 0
 380.337565104 -8.37760416667 389.894856771 10.0543619792 406.620117188 24.7314453125 c 0
 420.956054688 39.0673828125 436.828125 50.501953125 454.236328125 59.03515625 c 0
622.68359375 751.259765625 m 0
 631.899739583 746.481119792 640.433268229 740.166341146 648.284179688 732.315429688 c 0
 655.110351562 726.512695312 661.083658854 719.856770833 666.204101562 712.34765625 c 0
 677.809570312 694.598307292 682.758789062 675.312825521 681.051757812 654.491210938 c 0
 679.686523438 640.155273438 677.979817708 625.819335938 675.931640625 611.483398438 c 0
 672.860026042 591.003580729 669.788085938 570.523763021 666.715820312 550.043945312 c 0
 663.985351562 529.905273438 661.083984375 509.595703125 658.01171875 489.115234375 c 0
 655.28125 468.9765625 652.379882812 448.837890625 649.307617188 428.69921875 c 0
 646.236002604 408.560546875 642.822916667 388.421875 639.068359375 368.283203125 c 0
 635.313151042 347.803385417 631.217122396 327.323567708 626.780273438 306.84375 c 0
 622.683919271 287.046223958 618.416992188 267.248697917 613.979492188 247.451171875 c 0
 609.542643229 226.971354167 604.934895833 206.662109375 600.15625 186.5234375 c 0
 597.425130208 174.576822917 594.694335938 162.630208333 591.963867188 150.68359375 c 0
 580.700195312 147.270182292 569.436197917 144.710286458 558.171875 143.00390625 c 0
 543.152994792 139.590494792 528.134440104 137.030273438 513.116210938 135.323242188 c 0
 496.732096354 135.665039062 480.518554688 135.8359375 464.475585938 135.8359375 c 0
 454.236002604 138.225260417 444.337565104 141.126627604 434.780273438 144.540039062 c 0
 429.659830729 146.246419271 425.222330729 148.976888021 421.467773438 152.731445312 c 0
 415.665039062 158.875325521 410.886393229 165.872721354 407.131835938 173.723632812 c 0
 404.401367188 178.843424479 402.182617188 184.134114583 400.475585938 189.595703125 c 0
 397.745117188 207.686197917 395.185221354 225.776692708 392.795898438 243.8671875 c 0
 390.406575521 262.640625 388.187825521 281.072591146 386.139648438 299.163085938 c 0
 384.092122396 316.912434896 382.21484375 334.661783854 380.5078125 352.411132812 c 0
 378.459635417 370.502278646 376.582356771 388.593098958 374.875976562 406.68359375 c 0
 373.510742188 424.774088542 372.316080729 442.694010417 371.291992188 460.443359375 c 0
 370.267903646 478.533854167 369.243815104 496.624674479 368.219726562 514.715820312 c 0
 367.195638021 532.806315104 366.171549479 550.726236979 365.147460938 568.475585938 c 0
 363.782226562 591.003580729 360.369140625 612.166341146 354.908203125 631.963867188 c 0
 352.177083333 641.862304688 349.104817708 651.931640625 345.69140625 662.171875 c 0
 343.643880208 667.6328125 342.620117188 673.094075521 342.620117188 678.555664062 c 0
 343.302408854 698.694335938 351.323567708 714.736979167 366.68359375 726.68359375 c 0
 379.313151042 736.240885417 392.795898438 743.579427083 407.131835938 748.69921875 c 0
 425.564127604 755.8671875 444.508138021 761.840494792 463.963867188 766.619140625 c 0
 482.396158854 768.326171875 500.828125 769.350260417 519.259765625 769.69140625 c 0
 534.9609375 770.032552083 550.833007812 769.861979167 566.875976562 769.1796875 c 0
 586.331705729 766.790364583 604.934244792 760.817057292 622.68359375 751.259765625 c 0
EndSplineSet
EndChar

StartChar: W
Encoding: 87 87 22
Width: 1024
VWidth: 0
Flags: H
LayerCount: 2
Fore
SplineSet
921.856445312 576.842773438 m 0
 922.538736979 576.501627604 923.050455729 575.6484375 923.391601562 574.283203125 c 0
 927.487955729 556.875 927.487955729 539.296223958 923.391601562 521.546875 c 0
 920.661132812 512.330729167 916.053385417 503.456054688 909.568359375 494.922851562 c 0
 909.568359375 494.581705729 909.397460938 494.411132812 909.055664062 494.411132812 c 0
 908.031575521 493.387044271 907.0078125 492.362955729 905.984375 491.338867188 c 0
 904.960286458 490.314778646 903.936197917 489.802734375 902.912109375 489.802734375 c 2
 801.536132812 477.514648438 l 1
 798.463867188 363.168294271 799.658528646 247.626953125 805.120117188 130.890625 c 0
 807.850585938 74.2291666667 800.853190104 18.591796875 784.127929688 -36.021484375 c 0
 775.253580729 -63.328125 762.282877604 -88.7574869792 745.215820312 -112.309570312 c 0
 732.928059896 -129.034830729 717.909505208 -141.152018229 700.16015625 -148.661132812 c 0
 615.16796875 -181.429361979 528.127929688 -188.767903646 439.040039062 -170.676757812 c 0
 373.504231771 -156.340820312 315.306966146 -128.010416667 264.448242188 -85.685546875 c 0
 255.232096354 -78.17578125 248.234700521 -68.9596354167 243.456054688 -58.037109375 c 0
 235.263997396 -39.9466145833 229.973307292 -21.0026041667 227.583984375 -1.205078125 c 0
 206.080078125 163.658854167 204.032226562 328.864257812 221.440429688 494.411132812 c 1
 133.375976562 497.995117188 l 2
 132.010742188 497.995117188 130.816080729 498.507161458 129.791992188 499.53125 c 0
 110.336263021 519.669921875 99.5843098958 543.904296875 97.5361328125 572.234375 c 0
 97.5361328125 573.258463542 97.8772786458 574.282552083 98.5595703125 575.306640625 c 2
 106.240234375 588.106445312 l 2
 106.240234375 588.448242188 106.410807292 588.789713542 106.751953125 589.130859375 c 0
 125.525390625 609.26953125 149.930664062 617.120117188 179.967773438 612.682617188 c 0
 188.500976562 611.317382812 197.375651042 610.976236979 206.591796875 611.659179688 c 0
 230.826822917 652.277669271 267.520182292 671.221679688 316.671875 668.491210938 c 0
 323.498697917 668.149414062 330.49609375 667.807942708 337.6640625 667.466796875 c 0
 359.16796875 714.912109375 392.789388021 751.093424479 438.528320312 776.010742188 c 2
 439.040039062 776.010742188 l 2
 478.293294271 796.832356771 519.253255208 799.904296875 561.919921875 785.2265625 c 2
 562.431640625 785.2265625 l 2
 580.522786458 778.741536458 597.248372396 770.037760417 612.608398438 759.115234375 c 0
 640.597330729 738.9765625 656.639973958 711.840494792 660.736328125 677.70703125 c 1
 705.450520833 682.826822917 746.922526042 673.610677083 785.15234375 650.05859375 c 0
 803.583984375 639.136067708 816.895833333 623.60546875 825.087890625 603.466796875 c 0
 846.591796875 598.688151042 868.095703125 594.421549479 889.599609375 590.666992188 c 0
 898.133463542 589.301757812 906.325520833 586.229817708 914.17578125 581.451171875 c 2
 914.688476562 580.938476562 l 2
 917.077799479 580.256184896 919.467122396 578.890950521 921.856445312 576.842773438 c 0
508.671875 692.04296875 m 2
 488.533203125 689.994791667 471.295898438 682.144205729 456.959960938 668.491210938 c 2
 555.263671875 662.858398438 l 1
 560.896484375 663.37109375 l 1
 554.240234375 683.850585938 l 2
 541.610677083 692.725585938 526.591796875 695.456380208 509.18359375 692.04296875 c 2
 508.671875 692.04296875 l 2
702.208007812 480.075195312 m 2
 617.727539062 486.21875 l 1
 318.208007812 490.314453125 l 2
 319.232096354 479.733072917 319.914713542 468.981119792 320.255859375 458.05859375 c 0
 320.938802083 445.087890625 320.59765625 431.776041667 319.232421875 418.123046875 c 0
 310.016276042 335.861328125 304.042643229 254.111979167 301.311523438 172.875 c 0
 300.629231771 151.029296875 301.312174479 129.183919271 303.360351562 107.338867188 c 0
 306.090820312 74.9124348958 313.087890625 43.6803385417 324.3515625 13.642578125 c 0
 332.885416667 -9.2265625 344.149414062 -30.5598958333 358.143554688 -50.357421875 c 2
 358.65625 -50.869140625 l 2
 364.1171875 -59.0611979167 371.455729167 -65.0345052083 380.671875 -68.7890625 c 0
 452.352213542 -94.3893229167 524.71484375 -96.7786458333 597.759765625 -75.95703125 c 0
 633.258463542 -65.0345052083 663.466471354 -46.2610677083 688.383789062 -19.63671875 c 0
 690.431966146 -17.5891927083 691.626627604 -14.8587239583 691.967773438 -11.4453125 c 2
 691.967773438 -10.93359375 l 2
 701.525065104 94.197265625 702.890625 198.986653646 696.064453125 303.434570312 c 0
 693.675130208 341.322591146 693.845703125 379.72265625 696.576171875 418.634765625 c 0
 697.94140625 439.456380208 699.818684896 459.936523438 702.208007812 480.075195312 c 2
398.591796875 461.130859375 m 0
 419.071614583 462.837239583 425.727539062 429.8984375 418.559570312 362.314453125 c 0
 411.391601562 294.73046875 409.002278646 236.533203125 411.391601562 187.72265625 c 0
 414.805013021 114.677734375 413.951822917 45.3870442708 408.83203125 -20.1494140625 c 0
 408.490885417 -25.9521484375 405.248046875 -26.4641927083 399.103515625 -21.685546875 c 0
 374.527994792 -1.88802083333 361.557617188 25.7600911458 360.192382812 61.2587890625 c 0
 354.047851562 189.941731771 360.021158854 314.357747396 378.112304688 434.506835938 c 0
 378.794596354 437.579101562 385.62109375 446.453776042 398.591796875 461.130859375 c 0
621.311523438 449.354492188 m 0
 654.762695312 413.514648438 668.928059896 365.898763021 663.807617188 306.506835938 c 0
 659.370768229 258.037434896 658.005533854 209.909505208 659.711914062 162.123046875 c 0
 661.760091146 93.5149739583 644.864257812 35.1468098958 609.024414062 -12.9814453125 c 0
 604.928059896 -18.4423828125 601.685221354 -17.2477213542 599.295898438 -9.3974609375 c 0
 590.079752604 17.2268880208 587.690429688 46.240234375 592.127929688 77.642578125 c 0
 604.757486979 170.485677083 606.805664062 264.523111979 598.272460938 359.754882812 c 0
 595.883138021 389.450846354 599.637695312 416.586914062 609.536132812 441.163085938 c 0
 611.584309896 446.624023438 615.509440104 449.354492188 621.311523438 449.354492188 c 0
511.232421875 446.794921875 m 0
 538.5390625 459.424479167 547.754882812 429.045898438 538.879882812 355.659179688 c 0
 529.663736979 282.272460938 527.444986979 209.226888021 532.223632812 136.522460938 c 0
 536.661132812 63.8186848958 533.589192708 12.9602864583 523.0078125 -16.052734375 c 0
 512.426432292 -45.06640625 500.479817708 -45.06640625 487.16796875 -16.052734375 c 0
 473.856119792 12.9602864583 467.541341146 47.9469401042 468.223632812 88.9072265625 c 0
 470.271809896 201.547200521 479.487955729 310.603190104 495.872070312 416.075195312 c 0
 496.555013021 420.512044271 501.675130208 430.751953125 511.232421875 446.794921875 c 0
EndSplineSet
EndChar

StartChar: X
Encoding: 88 88 23
Width: 1024
VWidth: 0
Flags: H
LayerCount: 2
Fore
SplineSet
592.092773438 419.880859375 m 0
 590.044596354 442.408854167 599.943033854 456.403320312 621.788085938 461.864257812 c 0
 748.764648438 400.083007812 775.900716146 307.923177083 703.196289062 185.384765625 c 0
 695.346028646 172.4140625 683.740885417 163.539388021 668.380859375 158.760742188 c 0
 597.724609375 136.915039062 576.903320312 153.469726562 605.916992188 208.424804688 c 0
 611.719075521 220.029622396 619.910807292 230.440104167 630.4921875 239.65625 c 0
 671.793619792 272.424479167 671.964518229 307.752604167 631.004882812 345.640625 c 0
 607.793945312 367.485677083 594.823242188 392.232421875 592.092773438 419.880859375 c 0
540.380859375 475.176757812 m 0
 547.20703125 319.870117188 543.623046875 167.123372396 529.62890625 16.9365234375 c 0
 530.311197917 14.2060546875 530.993815104 11.3046875 531.676757812 8.232421875 c 0
 533.041992188 2.77083333333 531.676432292 -0.813151041667 527.580078125 -2.51953125 c 0
 526.556640625 -9.00455729167 525.874023438 -15.3193359375 525.532226562 -21.4638671875 c 0
 524.508138021 -27.9488932292 519.388346354 -28.8020833333 510.172851562 -24.0234375 c 0
 483.207356771 -10.7115885417 457.607421875 3.45377604167 433.373046875 18.47265625 c 0
 408.455078125 28.7122395833 385.073567708 42.1949869792 363.228515625 58.9208984375 c 0
 332.167317708 82.8141276042 302.471354167 107.560546875 274.140625 133.16015625 c 0
 267.654947917 139.3046875 262.534830729 145.107421875 258.780273438 150.568359375 c 0
 208.263346354 144.083333333 158.087565104 151.933919271 108.252929688 174.120117188 c 0
 100.402018229 177.875325521 95.9645182292 184.531575521 94.9404296875 194.088867188 c 0
 91.5270182292 249.726236979 92.3805338542 302.6328125 97.5009765625 352.80859375 c 0
 98.1832682292 357.587239583 102.620442708 361.000651042 110.8125 363.048828125 c 0
 128.561848958 366.803385417 145.628580729 371.240559896 162.012695312 376.360351562 c 0
 191.708658854 387.282877604 215.601888021 391.720377604 233.692382812 389.672851562 c 0
 285.575195312 459.987304688 349.916666667 520.573893229 426.716796875 571.432617188 c 0
 427.740885417 571.091471354 428.423502604 570.75 428.764648438 570.408203125 c 0
 437.980794271 576.893880208 448.732747396 583.720703125 461.020507812 590.888671875 c 0
 511.879231771 570.75 538.332682292 532.179361979 540.380859375 475.176757812 c 0
854.236328125 33.3203125 m 0
 807.815104167 -23.3411458333 755.420572917 -38.8717447917 697.052734375 -13.271484375 c 0
 684.08203125 -8.15169270833 682.716796875 -0.4716796875 692.95703125 9.7685546875 c 0
 726.407552083 42.5367838542 759.858072917 77.3528645833 793.30859375 114.216796875 c 0
 865.671223958 194.771484375 877.959309896 287.443359375 830.172851562 392.232421875 c 0
 792.625976562 474.493489583 743.132486979 546.173502604 681.692382812 607.272460938 c 0
 674.865559896 613.757486979 677.084309896 621.778971354 688.348632812 631.336914062 c 0
 694.833658854 636.797851562 701.319010417 640.040364583 707.8046875 641.064453125 c 0
 910.556640625 522.962890625 975.239257812 349.736328125 901.852539062 121.384765625 c 0
 891.271158854 89.2994791667 875.399088542 59.9446614583 854.236328125 33.3203125 c 0
EndSplineSet
EndChar

StartChar: Y
Encoding: 89 89 24
Width: 1024
VWidth: 0
Flags: H
LayerCount: 2
Fore
SplineSet
933.872070312 -59.1142578125 m 0
 944.112304688 -72.0849609375 943.4296875 -84.5436197917 931.82421875 -96.490234375 c 0
 905.199869792 -124.479166667 878.575846354 -122.943033854 851.952148438 -91.8818359375 c 0
 823.621419271 -58.7724609375 795.120117188 -25.833984375 766.448242188 6.93359375 c 0
 741.189127604 0.448567708333 714.735677083 3.34993489583 687.087890625 15.6376953125 c 0
 674.1171875 20.7581380208 672.751953125 28.4381510417 682.9921875 38.677734375 c 0
 692.890625 48.2350260417 702.618489583 57.9632161458 712.17578125 67.8623046875 c 0
 679.06640625 105.067382812 645.615885417 141.931315104 611.82421875 178.454101562 c 0
 589.296223958 178.112955729 580.080078125 187.840820312 584.17578125 207.637695312 c 0
 567.109375 226.069986979 549.872070312 244.331380208 532.463867188 262.421875 c 1
 530.757486979 189.718098958 526.490885417 117.526041667 519.6640625 45.845703125 c 0
 520.347005208 43.115234375 521.029622396 40.2138671875 521.711914062 37.1416015625 c 0
 523.077148438 31.6806640625 521.711914062 28.0966796875 517.616210938 26.3896484375 c 0
 516.592122396 19.9046223958 515.909505208 13.5901692708 515.568359375 7.4462890625 c 0
 514.544270833 0.960611979167 509.424153646 0.107096354167 500.208007812 4.8857421875 c 0
 473.242513021 18.1975911458 447.642578125 32.3629557292 423.408203125 47.3818359375 c 0
 398.490885417 57.6220703125 375.109375 71.1048177083 353.263671875 87.830078125 c 0
 322.202473958 111.723307292 292.506510417 136.470052083 264.17578125 162.0703125 c 0
 257.690755208 168.214192708 252.570963542 174.016601562 248.81640625 179.477539062 c 0
 198.298828125 172.992513021 148.122721354 180.843424479 98.2880859375 203.030273438 c 0
 90.4371744792 206.784830729 85.9996744792 213.440755208 84.9755859375 222.998046875 c 0
 81.5628255208 278.635416667 82.4163411458 331.541992188 87.5361328125 381.717773438 c 0
 88.2184244792 386.496419271 92.6555989583 389.909830729 100.84765625 391.958007812 c 0
 118.597005208 395.712565104 135.663736979 400.149739583 152.047851562 405.26953125 c 0
 181.743815104 416.192708333 205.637044271 420.630208333 223.727539062 418.58203125 c 0
 247.962565104 451.350260417 274.928059896 482.0703125 304.624023438 510.7421875 c 1
 284.826497396 533.270182292 265.029296875 555.96875 245.232421875 578.837890625 c 0
 220.65625 607.168619792 196.080078125 635.669921875 171.50390625 664.341796875 c 0
 147.951822917 691.990234375 153.242513021 713.323567708 187.375976562 728.341796875 c 0
 190.448242188 729.70703125 193.179036458 730.389648438 195.568359375 730.389648438 c 0
 263.15234375 687.381835938 322.544270833 633.792643229 373.744140625 569.622070312 c 0
 387.397135417 580.203450521 401.733072917 590.443359375 416.751953125 600.341796875 c 0
 417.776041667 600.000651042 418.458658854 599.659505208 418.799804688 599.318359375 c 0
 428.015950521 605.803385417 438.767903646 612.629882812 451.055664062 619.797851562 c 0
 501.914388021 599.659179688 528.367838542 561.088541667 530.416015625 504.0859375 c 0
 532.464192708 460.395182292 533.658854167 416.704427083 534 373.013671875 c 1
 563.695963542 339.222005208 594.416015625 305.942057292 626.16015625 273.173828125 c 1
 661.658854167 304.576822917 659.952148438 338.368815104 621.040039062 374.549804688 c 0
 597.829101562 396.395507812 584.858398438 421.142252604 582.127929688 448.790039062 c 0
 580.079752604 471.318033854 589.978515625 485.312825521 611.82421875 490.774414062 c 0
 738.800130208 428.992513021 765.936197917 336.832356771 693.232421875 214.293945312 c 0
 692.208333333 212.245768229 691.013671875 210.368489583 689.6484375 208.662109375 c 0
 695.450520833 202.859375 701.423828125 197.056640625 707.568359375 191.25390625 c 0
 728.73046875 170.774088542 749.722330729 149.952799479 770.543945312 128.790039062 c 1
 774.640299479 133.568684896 778.906901042 138.347330729 783.34375 143.125976562 c 0
 855.706380208 223.680664062 867.994466146 316.352539062 820.208007812 421.141601562 c 0
 782.661132812 503.403320312 733.167643229 575.083333333 671.727539062 636.181640625 c 0
 664.901367188 642.667317708 667.120117188 650.688802083 678.383789062 660.24609375 c 0
 684.869466146 665.70703125 691.354817708 668.949544271 697.83984375 669.973632812 c 0
 900.591796875 551.872721354 965.274414062 378.646158854 891.887695312 150.293945312 c 0
 881.306315104 118.208658854 865.434570312 88.8538411458 844.272460938 62.2294921875 c 0
 841.200195312 58.6455078125 841.200195312 58.6455078125 838.127929688 55.0615234375 c 0
 841.711914062 50.9658203125 841.711914062 50.9658203125 845.295898438 46.8701171875 c 0
 875.674804688 12.0537109375 905.200195312 -23.2744140625 933.872070312 -59.1142578125 c 0
EndSplineSet
EndChar

StartChar: Z
Encoding: 90 90 25
Width: 1024
VWidth: 0
Flags: H
LayerCount: 2
Fore
SplineSet
769.411132812 76.0927734375 m 0
 796.375976562 73.0205078125 821.293294271 64.9990234375 844.163085938 52.0283203125 c 0
 846.552408854 49.9807942708 848.4296875 47.2503255208 849.794921875 43.8369140625 c 0
 852.184244792 35.6448567708 853.720377604 27.111328125 854.403320312 18.236328125 c 0
 855.426757812 10.7272135417 856.109375 2.87662760417 856.451171875 -5.3154296875 c 0
 856.792317708 -11.1181640625 856.962890625 -16.75 856.962890625 -22.2109375 c 0
 856.621744792 -30.4029947917 855.085611979 -38.4244791667 852.354492188 -46.275390625 c 0
 850.648111979 -51.736328125 848.088216146 -56.685546875 844.674804688 -61.123046875 c 0
 842.285481771 -64.1953125 840.237630208 -66.9261067708 838.53125 -69.3154296875 c 0
 832.38671875 -77.1656901042 824.194661458 -81.26171875 813.955078125 -81.603515625 c 0
 802.690755208 -82.96875 791.767903646 -84.6754557292 781.186523438 -86.7236328125 c 0
 769.922851562 -87.7470703125 758.829752604 -89.1123046875 747.907226562 -90.8193359375 c 0
 736.642903646 -92.5257161458 725.549479167 -94.0618489583 714.626953125 -95.427734375 c 0
 703.362630208 -96.79296875 692.098632812 -97.9876302083 680.834960938 -99.01171875 c 0
 669.229492188 -100.376953125 657.794921875 -101.912760417 646.53125 -103.619140625 c 0
 635.266927083 -104.643229167 624.002929688 -105.837890625 612.739257812 -107.203125 c 0
 604.205403646 -108.227213542 595.842447917 -108.227213542 587.650390625 -107.203125 c 0
 564.098958333 -96.962890625 550.957682292 -86.7229817708 548.2265625 -76.4833984375 c 0
 545.154947917 -66.5849609375 543.619140625 -58.734375 543.619140625 -52.931640625 c 0
 543.619140625 -46.1048177083 544.131184896 -39.2779947917 545.155273438 -32.451171875 c 0
 546.861653646 -20.5045572917 548.397460938 -8.55794270833 549.762695312 3.388671875 c 0
 551.469726562 15.6764322917 553.005859375 27.9645182292 554.37109375 40.2529296875 c 0
 554.712239583 43.3245442708 555.906901042 46.0550130208 557.955078125 48.4443359375 c 0
 559.3203125 50.8336588542 561.5390625 52.7112630208 564.611328125 54.0771484375 c 0
 576.557942708 60.2210286458 590.552408854 64.9996744792 606.594726562 68.4130859375 c 0
 622.637695312 71.4847005208 632.70703125 72.8499348958 636.802734375 72.5087890625 c 0
 641.240234375 72.1676432292 648.237630208 72.1676432292 657.794921875 72.5087890625 c 0
 668.03515625 72.8499348958 679.469726562 73.19140625 692.098632812 73.533203125 c 0
 706.093424479 74.556640625 720.429361979 75.5804036458 735.106445312 76.6044921875 c 0
 746.029622396 76.6044921875 757.464518229 76.4339192708 769.411132812 76.0927734375 c 0
388.995117188 80.1884765625 m 0
 403.672200521 79.8473307292 427.906901042 76.6048177083 461.69921875 70.4609375 c 0
 470.914713542 68.4127604167 477.05859375 63.4632161458 480.130859375 55.6123046875 c 0
 485.592447917 39.9111328125 487.811197917 24.5514322917 486.787109375 9.533203125 c 0
 488.493489583 -1.73111979167 489.688151042 -12.9951171875 490.37109375 -24.2587890625 c 0
 491.395182292 -42.3499348958 491.395182292 -59.4166666667 490.37109375 -75.458984375 c 0
 490.029296875 -77.8483072917 489.687825521 -80.2376302083 489.346679688 -82.626953125 c 0
 488.664388021 -84.6751302083 485.421875 -87.2353515625 479.619140625 -90.3076171875 c 0
 473.133463542 -93.3792317708 461.527994792 -96.6217447917 444.802734375 -100.03515625 c 0
 428.077473958 -102.765625 399.576171875 -103.960286458 359.298828125 -103.619140625 c 0
 335.064453125 -103.619140625 311.000325521 -102.595052083 287.106445312 -100.546875 c 0
 278.914388021 -99.181640625 271.063802083 -97.3043619792 263.5546875 -94.9150390625 c 0
 255.362630208 -93.2086588542 247.682617188 -91.1608072917 240.514648438 -88.771484375 c 0
 226.178710938 -86.0403645833 215.597330729 -78.8723958333 208.770507812 -67.267578125 c 0
 202.626627604 -57.3684895833 198.360026042 -46.4456380208 195.970703125 -34.4990234375 c 0
 194.264322917 -27.3310546875 193.069661458 -20.1630859375 192.38671875 -12.9951171875 c 0
 191.021484375 -5.8271484375 190.168294271 1.3408203125 189.827148438 8.5087890625 c 0
 189.485351562 20.4554036458 189.485351562 32.2314453125 189.827148438 43.8369140625 c 0
 190.509440104 55.7835286458 195.800130208 65.6822916667 205.69921875 73.533203125 c 0
 214.232421875 80.359375 224.642903646 83.7724609375 236.930664062 83.7724609375 c 0
 248.877278646 84.4554036458 260.994791667 84.6263020833 273.283203125 84.28515625 c 0
 285.229817708 84.28515625 297.176432292 84.1142578125 309.123046875 83.7724609375 c 0
 320.728515625 82.4072265625 332.333658854 81.724609375 343.938476562 81.724609375 c 0
 354.861653646 81.724609375 361.517903646 81.5540364583 363.907226562 81.212890625 c 0
 365.272460938 81.212890625 373.635091146 80.8714192708 388.995117188 80.1884765625 c 0
213.890625 419.1328125 m 0
 246.317708333 424.594401042 278.915039062 428.178385417 311.682617188 429.884765625 c 0
 368.002929688 433.639322917 421.080403646 423.569986979 470.915039062 399.676757812 c 0
 486.616210938 386.706054688 493.954752604 346.770182292 492.930664062 279.869140625 c 0
 491.565429688 212.967447917 489.688151042 173.543294271 487.298828125 161.596679688 c 0
 483.544270833 143.165039062 473.133463542 130.194335938 456.06640625 122.684570312 c 0
 442.072265625 116.540690104 427.053710938 114.151367188 411.010742188 115.516601562 c 0
 350.253580729 116.540690104 289.666992188 118.247395833 229.250976562 120.63671875 c 0
 205.357747396 122.343098958 186.413736979 132.241861979 172.418945312 150.333007812 c 0
 171.736002604 151.015299479 171.223958333 151.868489583 170.8828125 152.892578125 c 0
 151.768229167 211.943359375 143.405598958 272.529947917 145.794921875 334.65234375 c 0
 146.819010417 356.839192708 153.474934896 376.807291667 165.762695312 394.556640625 c 0
 177.027018229 409.916666667 193.069661458 418.108723958 213.890625 419.1328125 c 0
872.834960938 616.764648438 m 0
 876.248372396 590.823242188 873.005533854 565.905924479 863.106445312 542.012695312 c 0
 856.962565104 527.335611979 846.72265625 516.583658854 832.38671875 509.756835938 c 0
 774.360026042 483.474283854 714.285481771 462.652994792 652.163085938 447.29296875 c 0
 573.656575521 428.860677083 494.467122396 427.495117188 414.594726562 443.196289062 c 0
 395.821289062 445.927408854 357.592122396 459.069010417 299.907226562 482.62109375 c 0
 299.565429688 483.303385417 299.053385417 483.815429688 298.37109375 484.157226562 c 0
 275.843098958 497.127278646 252.461588542 529.895182292 228.2265625 582.4609375 c 0
 223.447916667 593.042317708 220.717447917 604.306315104 220.03515625 616.252929688 c 0
 218.328125 642.194335938 228.055989583 661.820963542 249.21875 675.1328125 c 0
 263.213541667 682.641927083 277.37890625 687.25 291.71484375 688.95703125 c 0
 354.861328125 691.346354167 407.085286458 670.013020833 448.38671875 624.95703125 c 0
 467.16015625 604.4765625 481.154947917 581.095052083 490.37109375 554.8125 c 1
 558.979166667 632.63671875 642.09375 687.591471354 739.71484375 719.676757812 c 0
 788.184244792 727.185872396 821.805664062 716.263346354 840.579101562 686.909179688 c 0
 859.352539062 657.895507812 870.104492188 634.513997396 872.834960938 616.764648438 c 0
817.026367188 620.348632812 m 0
 815.661132812 630.930013021 809.346679688 640.316731771 798.083007812 648.508789062 c 0
 786.477539062 656.700846354 768.557617188 657.554036458 744.323242188 651.068359375 c 0
 683.565429688 633.319010417 632.535807292 601.575195312 591.234375 555.836914062 c 0
 577.922526042 541.159179688 564.952148438 525.799153646 552.323242188 509.756835938 c 1
 565.976236979 509.073893229 583.042643229 509.415039062 603.522460938 510.780273438 c 0
 644.823893229 516.241861979 683.565429688 525.799479167 719.747070312 539.453125 c 0
 758.659179688 553.7890625 787.331054688 570.85546875 805.762695312 590.65234375 c 0
 814.295898438 600.209635417 818.050455729 610.108398438 817.026367188 620.348632812 c 0
288.130859375 619.325195312 m 0
 298.37109375 568.124674479 326.53125 530.748372396 372.611328125 507.196289062 c 0
 390.701822917 497.980794271 409.986979167 492.51953125 430.466796875 490.8125 c 1
 417.837239583 553.276692708 382.16796875 595.260742188 323.458984375 616.764648438 c 0
 299.906901042 630.076497396 288.130859375 630.930013021 288.130859375 619.325195312 c 0
875.907226562 179.516601562 m 0
 875.565429688 164.497721354 871.298502604 150.503255208 863.106445312 137.533203125 c 0
 857.986653646 128.999348958 850.648111979 124.220377604 841.090820312 123.196289062 c 0
 806.275065104 116.370117188 770.776367188 112.615559896 734.594726562 111.932617188 c 0
 686.125325521 111.250325521 638.338541667 113.639648438 591.234375 119.100585938 c 0
 579.287760417 121.148763021 567.512044271 122.85546875 555.907226562 124.220703125 c 2
 547.71484375 128.31640625 l 1
 536.450520833 207.847005208 536.279947917 287.036458333 547.203125 365.884765625 c 0
 549.250651042 379.196614583 555.565104167 388.583333333 566.146484375 394.044921875 c 0
 581.506510417 401.895182292 598.232096354 407.697916667 616.323242188 411.453125 c 0
 678.104492188 420.327473958 734.595052083 420.668619792 785.794921875 412.4765625 c 1
 761.901692708 415.548828125 757.464192708 415.890299479 772.482421875 413.500976562 c 0
 807.639973958 410.428710938 835.458658854 395.239257812 855.938476562 367.932617188 c 0
 864.130533854 356.668945312 869.762695312 343.869140625 872.834960938 329.533203125 c 0
 877.272460938 307.6875 879.149739583 286.183268229 878.466796875 265.020507812 c 0
 877.442708333 237.031575521 876.589518229 208.530273438 875.907226562 179.516601562 c 0
EndSplineSet
EndChar

StartChar: dollar
Encoding: 36 36 26
Width: 1024
VWidth: 0
Flags: H
LayerCount: 2
Fore
SplineSet
540.891601562 785.262695312 m 0
 586.630533854 757.614908854 607.28125 718.020507812 602.84375 666.479492188 c 0
 601.819661458 657.604492188 600.966471354 648.558919271 600.284179688 639.342773438 c 0
 658.993164062 628.079101562 700.294270833 596.505859375 724.1875 544.623046875 c 0
 729.990234375 533.017578125 734.427734375 520.217447917 737.5 506.22265625 c 0
 737.5 505.7109375 737.5 505.7109375 737.5 504.6875 c 2
 736.475585938 468.846679688 l 2
 736.475585938 468.164388021 736.305013021 467.652669271 735.963867188 467.311523438 c 0
 735.280924479 466.628580729 734.768880208 465.945638021 734.427734375 465.262695312 c 0
 714.2890625 453.657877604 693.297200521 455.194010417 671.452148438 469.87109375 c 0
 654.043945312 481.817708333 641.585286458 497.177734375 634.076171875 515.951171875 c 0
 632.369140625 520.388671875 629.808919271 523.802083333 626.395507812 526.19140625 c 0
 615.131835938 535.407552083 602.502604167 541.039388021 588.5078125 543.086914062 c 2
 555.227539062 352.623046875 l 1
 609.158528646 331.460286458 661.211914062 305.177734375 711.387695312 273.775390625 c 0
 722.652018229 266.607421875 731.185221354 257.561848958 736.987304688 246.638671875 c 0
 766.683919271 192.025390625 768.732096354 136.900065104 743.131835938 81.2626953125 c 0
 738.694335938 71.0231119792 732.550455729 61.2952473958 724.700195312 52.0791015625 c 0
 702.172200521 26.4788411458 674.012044271 8.046875 640.219726562 -3.216796875 c 0
 603.355794271 -15.8463541667 565.467773438 -24.208984375 526.555664062 -28.3046875 c 0
 521.435872396 -28.6458333333 516.315755208 -28.9873046875 511.1953125 -29.3291015625 c 2
 527.067382812 -156.3046875 l 2
 527.067382812 -157.329101562 527.067382812 -157.329101562 527.067382812 -158.865234375 c 0
 526.726236979 -159.547526042 526.214518229 -160.230143229 525.532226562 -160.913085938 c 0
 510.513346354 -173.883789062 493.105143229 -175.761067708 473.307617188 -166.544921875 c 0
 448.731445312 -155.622395833 434.736979167 -137.702473958 431.32421875 -112.78515625 c 0
 426.88671875 -81.7233072917 422.790690104 -50.8326822917 419.036132812 -20.11328125 c 1
 367.835611979 -4.75325520833 327.558268229 24.4309895833 298.204101562 67.439453125 c 0
 288.646809896 81.0924479167 280.11328125 95.9404296875 272.603515625 111.983398438 c 0
 256.219401042 144.409830729 260.998046875 173.59375 286.939453125 199.53515625 c 0
 302.641276042 215.236328125 321.585286458 221.721679688 343.771484375 218.991210938 c 0
 344.454427083 218.991210938 345.137044271 218.649739583 345.819335938 217.966796875 c 0
 346.502278646 217.625651042 347.014322917 216.943033854 347.35546875 215.918945312 c 0
 356.912760417 198.169596354 362.374348958 178.713541667 363.740234375 157.55078125 c 0
 364.763671875 145.263020833 367.664713542 132.804361979 372.443359375 120.174804688 c 0
 379.953125 98.6708984375 394.459960938 83.4817708333 415.963867188 74.607421875 c 1
 417.670247396 151.065755208 427.91015625 226.670898438 446.68359375 301.422851562 c 1
 382.513020833 309.956054688 332.166341146 339.993489583 295.643554688 391.53515625 c 0
 286.427408854 404.164713542 281.990234375 418.671223958 282.33203125 435.0546875 c 0
 282.673177083 479.087239583 298.715820312 517.999348958 330.459960938 551.791015625 c 0
 373.126627604 598.895182292 426.203776042 627.908528646 489.69140625 638.831054688 c 1
 484.571614583 677.060221354 489.1796875 713.753580729 503.515625 748.911132812 c 0
 507.270182292 758.809570312 512.390299479 767.854817708 518.875976562 776.046875 c 0
 522.971679688 782.532552083 529.286132812 785.945963542 537.819335938 786.287109375 c 0
 538.843424479 786.287109375 539.867513021 785.945638021 540.891601562 785.262695312 c 0
381.66015625 436.079101562 m 0
 381.318359375 424.815429688 387.291666667 416.96484375 399.580078125 412.52734375 c 0
 422.44921875 405.017578125 445.318359375 396.99609375 468.1875 388.462890625 c 2
 488.66796875 545.134765625 l 1
 449.072916667 535.577473958 420.059570312 513.390950521 401.627929688 478.575195312 c 0
 394.459960938 464.580403646 387.804036458 450.415039062 381.66015625 436.079101562 c 0
543.452148438 278.3828125 m 1
 517.33984375 60.783203125 l 1
 579.804036458 65.5618489583 627.078776042 92.8684895833 659.1640625 142.703125 c 0
 659.1640625 143.044270833 659.334635417 143.21484375 659.67578125 143.21484375 c 0
 668.550130208 162.671223958 665.307617188 180.591471354 649.948242188 196.975585938 c 0
 640.390299479 206.874023438 630.832682292 216.601888021 621.275390625 226.159179688 c 0
 599.089192708 248.004231771 573.148111979 265.412109375 543.452148438 278.3828125 c 1
EndSplineSet
EndChar

StartChar: sterling
Encoding: 163 163 27
Width: 1024
VWidth: 0
Flags: H
LayerCount: 2
Fore
SplineSet
805.717773438 566.801757812 m 0
 805.717773438 512.188476562 787.968424479 468.327148438 752.469726562 435.217773438 c 0
 746.666992188 429.756184896 740.523111979 429.926757812 734.038085938 435.729492188 c 0
 703.659179688 461.329752604 696.832356771 495.804361979 713.557617188 539.153320312 c 0
 729.600585938 579.772460938 713.728841146 607.420572917 665.942382812 622.09765625 c 0
 636.587565104 631.313802083 606.550130208 637.116536458 575.830078125 639.505859375 c 0
 498.005859375 646.673828125 447.829752604 612.369791667 425.301757812 536.59375 c 0
 415.744466146 504.167317708 411.307291667 472.252604167 411.990234375 440.849609375 c 0
 418.133789062 440.849609375 418.133789062 440.849609375 423.765625 440.849609375 c 0
 459.264322917 440.849609375 493.909830729 442.897786458 527.702148438 446.994140625 c 0
 576.171549479 459.281901042 609.622070312 447.505859375 628.053710938 411.666015625 c 0
 634.539388021 398.354166667 631.467447917 387.772786458 618.837890625 379.921875 c 0
 594.26171875 363.87890625 565.930989583 356.540364583 533.845703125 357.90625 c 0
 500.054036458 359.612630208 466.432942708 358.247070312 432.982421875 353.809570312 c 0
 431.616536458 353.468424479 430.250976562 353.297851562 428.885742188 353.297851562 c 1
 434.347330729 338.620768229 441.003255208 324.113932292 448.853515625 309.77734375 c 0
 512.682942708 315.580078125 576.171223958 320.870768229 639.318359375 325.649414062 c 0
 686.421875 339.985351562 715.264322917 328.380208333 725.845703125 290.833984375 c 0
 731.989583333 268.305989583 723.114908854 255.847330729 699.221679688 253.458007812 c 0
 633.344726562 247.314127604 567.808919271 240.487304688 502.614257812 232.977539062 c 1
 516.950195312 209.425455729 525.824869792 183.484049479 529.23828125 155.153320312 c 0
 533.675130208 116.241861979 522.923177083 81.9381510417 496.982421875 52.2421875 c 1
 576.171223958 25.6178385417 655.360351562 15.20703125 734.549804688 21.009765625 c 0
 738.646158854 21.3509114583 741.718098958 24.0817057292 743.765625 29.2021484375 c 0
 761.856770833 76.3056640625 786.603515625 80.4016927083 818.005859375 41.490234375 c 0
 825.173828125 32.9563802083 826.709960938 22.7161458333 822.614257812 10.76953125 c 0
 793.600585938 -65.6888020833 736.256510417 -93.6780598958 650.58203125 -73.1982421875 c 0
 598.016927083 -60.5686848958 545.622395833 -46.5738932292 493.3984375 -31.2138671875 c 0
 439.126302083 -15.5126953125 389.6328125 -27.6302083333 344.91796875 -67.56640625 c 0
 325.120442708 -84.9739583333 302.421875 -97.6031901042 276.822265625 -105.454101562 c 0
 221.526041667 -121.838216146 195.755208333 -105.795572917 199.509765625 -57.326171875 c 0
 200.192708333 -46.4036458333 204.971354167 -37.1875 213.845703125 -29.677734375 c 0
 266.069661458 14.6953125 325.291015625 48.1458333333 391.509765625 70.673828125 c 0
 403.456380208 75.111328125 413.525716146 82.4498697917 421.717773438 92.689453125 c 0
 454.827148438 133.990885417 455.851236979 177.511067708 424.790039062 223.25 c 0
 396.118164062 219.666015625 396.118164062 219.666015625 367.446289062 216.08203125 c 0
 319.318033854 209.596354167 274.773763021 216.252278646 233.813476562 236.049804688 c 0
 218.795247396 242.534830729 215.040690104 253.286783854 222.549804688 268.305664062 c 0
 238.592773438 300.732096354 268.118164062 313.361328125 311.125976562 306.193359375 c 0
 330.240559896 302.780598958 349.526041667 301.5859375 368.982421875 302.609375 c 1
 359.766276042 319.335286458 352.086263021 336.231445312 345.942382812 353.297851562 c 0
 325.461914062 356.028320312 305.834960938 360.636393229 287.061523438 367.122070312 c 0
 276.138997396 371.217773438 272.213867188 378.897786458 275.286132812 390.162109375 c 0
 283.819335938 418.833984375 301.568684896 436.412434896 328.534179688 442.897460938 c 0
 326.144856771 493.073893229 336.214192708 544.786132812 358.7421875 598.034179688 c 0
 389.803385417 669.713867188 444.075195312 712.0390625 521.557617188 725.009765625 c 0
 631.467122396 731.153645833 720.725911458 693.948242188 789.333984375 613.393554688 c 0
 800.59765625 600.422851562 806.058919271 584.892252604 805.717773438 566.801757812 c 0
EndSplineSet
EndChar

StartChar: Euro
Encoding: 8364 8364 28
Width: 1024
VWidth: 0
Flags: H
LayerCount: 2
Fore
SplineSet
814.704101562 561.994140625 m 0
 807.877278646 544.244791667 794.39453125 534.858072917 774.255859375 533.833984375 c 0
 753.776041667 535.540364583 721.690755208 541.513671875 678 551.75390625 c 0
 633.28515625 562.676432292 588.570638021 560.628580729 543.856445312 545.610351562 c 0
 499.824544271 529.567382812 467.397786458 502.943359375 446.576171875 465.73828125 c 1
 499.483072917 464.03125 549.659179688 459.423177083 597.104492188 451.9140625 c 0
 644.208007812 446.794270833 671.514648438 437.407552083 679.024414062 423.75390625 c 0
 685.168294271 408.735026042 680.560221354 394.911132812 665.200195312 382.282226562 c 0
 650.181315104 367.946289062 627.823893229 359.071614583 598.127929688 355.658203125 c 0
 568.773111979 353.268880208 543.514648438 351.562174479 522.352539062 350.538085938 c 0
 484.464518229 349.855143229 446.064453125 350.3671875 407.15234375 352.07421875 c 1
 407.15234375 268.618164062 l 1
 467.909505208 267.594075521 522.352213542 265.033854167 570.48046875 260.9375 c 0
 617.583984375 255.817708333 646.597330729 248.649739583 657.520507812 239.43359375 c 0
 666.736002604 230.900390625 669.807942708 217.759114583 666.736328125 200.009765625 c 0
 660.592447917 183.967447917 633.114908854 170.484700521 584.303710938 159.561523438 c 0
 534.469075521 149.321940104 486 147.274088542 438.896484375 153.41796875 c 1
 460.059244792 98.4635416667 498.800455729 66.7194010417 555.120117188 58.185546875 c 0
 575.258789062 56.8203125 595.909505208 56.8203125 617.072265625 58.185546875 c 0
 650.181640625 67.7428385417 678.853515625 84.2975260417 703.087890625 107.849609375 c 0
 717.423828125 121.162109375 730.565104167 134.986328125 742.51171875 149.322265625 c 0
 755.82421875 164.682291667 773.573567708 175.263346354 795.759765625 181.065429688 c 2
 808.047851562 174.921875 l 2
 814.191731771 164.681640625 819.311848958 153.759114583 823.408203125 142.154296875 c 0
 830.235026042 121.673828125 828.528320312 102.217773438 818.288085938 83.7861328125 c 0
 810.778971354 69.4501953125 801.563151042 55.4554036458 790.640625 41.8017578125 c 0
 754.117838542 1.5244140625 711.451171875 -28.8541666667 662.640625 -49.333984375 c 0
 617.92578125 -61.9635416667 574.576171875 -60.2568359375 532.591796875 -44.2138671875 c 0
 522.352213542 -41.4833984375 512.965820312 -38.4114583333 504.432617188 -34.998046875 c 0
 474.053710938 -20.662109375 446.746744792 -2.57161458333 422.51171875 19.2734375 c 0
 396.229166667 41.119140625 373.018554688 68.0846354167 352.879882812 100.169921875 c 0
 341.957356771 118.602213542 331.375976562 138.058268229 321.135742188 158.538085938 c 0
 290.074544271 160.927408854 259.354817708 163.316731771 228.9765625 165.706054688 c 0
 221.125651042 167.412434896 213.957356771 170.484375 207.471679688 174.921875 c 0
 204.058919271 176.628255208 200.986979167 179.188151042 198.255859375 182.6015625 c 0
 191.770833333 211.956380208 203.205729167 230.388346354 232.560546875 237.897460938 c 0
 252.69921875 249.844726562 274.203125 257.524739583 297.072265625 260.9375 c 2
 296.047851562 366.921875 l 2
 273.861653646 373.065755208 252.357747396 379.380533854 231.536132812 385.866210938 c 0
 228.805664062 385.866210938 226.586914062 386.719401042 224.879882812 388.42578125 c 0
 219.760091146 411.977864583 227.781575521 428.532552083 248.944335938 438.08984375 c 0
 270.107096354 447.98828125 292.123046875 455.497721354 314.9921875 460.618164062 c 0
 327.621744792 493.385742188 344.859049479 522.569661458 366.704101562 548.169921875 c 0
 404.592122396 593.567057292 452.208007812 624.628255208 509.551757812 641.353515625 c 0
 555.290690104 657.396484375 598.810872396 667.124674479 640.112304688 670.538085938 c 0
 679.706705729 675.657877604 721.008138021 663.540364583 764.016601562 634.185546875 c 0
 805.317382812 602.783203125 822.213216146 578.719401042 814.704101562 561.994140625 c 0
EndSplineSet
EndChar
